<svg xmlns="http://www.w3.org/2000/svg" data-name="Layer 1" viewBox="0 0 100 125" x="0px" y="0px"><title>Artboard 24</title><g><path d="M70,22H30A12,12,0,0,0,18,34V50H34V70a8,8,0,0,0,8,8H74a8,8,0,0,0,8-8V34A12,12,0,0,0,70,22ZM26,42V34a4,4,0,0,1,8,0v8ZM74,70H42V34a11.92,11.92,0,0,0-.7-4H70a4,4,0,0,1,4,4Z"/><rect x="49" y="54" width="18" height="8"/><rect x="49" y="38" width="18" height="8"/></g><text x="0" y="115" fill="#000000" font-size="5px" font-weight="bold" font-family="'Helvetica Neue', Helvetica, Arial-Unicode, Arial, Sans-serif">Created by Gregor Cresnar</text><text x="0" y="120" fill="#000000" font-size="5px" font-weight="bold" font-family="'Helvetica Neue', Helvetica, Arial-Unicode, Arial, Sans-serif">from the Noun Project</text></svg>