<?xml version="1.0" encoding="UTF-8"?>
<svg width="94px" height="74px" viewBox="0 0 94 74" version="1.1" xmlns="http://www.w3.org/2000/svg" xmlns:xlink="http://www.w3.org/1999/xlink">
    <title>car-icon01</title>
    <g id="Page-1" stroke="none" stroke-width="1" fill="none" fill-rule="evenodd">
        <g id="car-icon01" fill="#000000" fill-rule="nonzero">
            <path d="M55.3,66.5 C55.2,65.2 55.5,63.8 56.3,62.6 C53.5,62.1 51.4,59.6 51.5,56.7 L51.5,55 L51.5,53.3 C51.5,50.5 53.5,48 56.3,47.5 C54.7,45.1 55,42 57,39.9 L58.2,38.7 L59.4,37.5 C60.5,36.4 62,35.8 63.6,35.8 C64.8,35.8 65.9,36.1 66.9,36.8 C67.5,34 69.9,32 72.7,32 C72.7,32 72.7,32 72.7,32 C72.7,32 72.7,32 72.7,32 C72.7,32 72.7,32 72.7,32 L74.4,32 L76.1,32 C79,32 81.4,34.1 81.9,36.9 C82.9,36.2 84.1,35.8 85.3,35.8 C85.8,35.8 86.3,35.9 86.8,36 C85.7,33.1 83.9,30.5 81.5,28.2 C81.3,28 81.1,28 80.9,27.8 C81,27.7 81,27.6 81.1,27.5 C81.8,27.5 82.5,27.5 83.1,27.5 C84.8,27.5 86.5,27.5 88.2,27.5 C89.9,27.5 91,26.4 91.1,24.7 C91.1,23.6 91.1,22.4 91.1,21.3 C91,19.7 90,18.6 88.4,18.6 C87.8,18.6 87.2,18.6 86.6,18.6 C83.3,18.6 81,22.4 81,22.4 C80.8,22.9 80.5,23.3 80.1,23.9 C79.7,22.5 79.4,21.3 79.1,20.2 C77.7,15.2 75.5,10.5 72.5,6.3 C70.4,3.3 67.4,2.3 64.1,1.7 C58.1,0.7 52,0.6 46,0.6 C39.9,0.6 33.9,0.7 27.9,1.7 C24.6,2.3 21.6,3.4 19.5,6.3 C16.5,10.6 14.3,15.2 12.9,20.2 C12.6,21.3 12.3,22.5 11.9,23.9 C11.5,23.2 11.2,22.8 11,22.4 C11,22.4 8.7,18.6 5.4,18.6 C4.8,18.6 4.2,18.6 3.6,18.6 C2,18.7 1,19.8 0.9,21.3 C0.9,22.4 0.9,23.6 0.9,24.7 C0.9,26.4 2.1,27.5 3.8,27.5 C5.5,27.5 7.2,27.5 8.9,27.5 C9.6,27.5 10.3,27.5 10.9,27.5 C11,27.6 11,27.7 11.1,27.8 C10.9,27.9 10.6,28 10.5,28.2 C6.2,32.3 3.9,37.3 4,43.3 C4.1,46.9 4.4,50.4 4.8,54 C5.1,56.7 5.7,59.4 7,61.9 C7.5,63 8.2,63.8 9.4,64 C10,64.1 10,64.5 10,64.9 C10,66.4 10,67.8 10,69.3 C10,71.4 11.2,72.6 13.3,72.6 C15.1,72.6 16.8,72.6 18.6,72.6 C20.9,72.6 22,71.4 22,69.2 C22,68.1 22,66.9 22,65.7 C30.1,66.3 38.1,66.6 46.1,66.6 C49.2,66.7 52.3,66.6 55.3,66.5 Z M17.1,24.8 C18.4,19.4 20.4,14.4 23.2,9.6 C23.4,9.3 23.5,9.1 23.7,9 L23.7,9 C23.7,9 23.7,9 23.7,9 C23.9,8.8 24.1,8.7 24.4,8.6 C26.2,7.8 31.6,6.2 46,6.1 C60.4,6.2 65.8,7.8 67.6,8.6 C67.9,8.7 68.1,8.8 68.3,9 C68.3,9 68.3,9 68.3,9 L68.3,9 C68.5,9.2 68.7,9.4 68.8,9.6 C71.6,14.3 73.6,19.4 74.9,24.8 C75,25.2 75,25.6 75.1,25.8 C65.4,25 55.6,24.5 45.9,24.5 C36.2,24.5 26.5,24.9 16.7,25.8 C17,25.6 17.1,25.2 17.1,24.8 Z M18.7,47.7 C15.2,47.7 12.3,44.8 12.3,41.3 C12.3,37.8 15.2,34.9 18.7,34.9 C22.2,34.9 25.1,37.8 25.1,41.3 C25.1,44.8 22.2,47.7 18.7,47.7 Z M91.9,52.1 L88.5,51.5 C88.2,50.2 87.7,48.9 87,47.8 L89,45 C89.4,44.5 89.3,43.8 88.9,43.3 L87.7,42.1 L86.5,40.9 C86.1,40.4 85.3,40.4 84.8,40.8 L82,42.8 C80.8,42.1 79.6,41.6 78.2,41.2 L77.6,37.8 C77.5,37.2 77,36.7 76.3,36.7 L74.6,36.7 L72.9,36.7 C72.3,36.7 71.7,37.2 71.6,37.8 L71,41.3 C69.7,41.6 68.4,42.2 67.3,42.8 L64.5,40.8 C64,40.4 63.3,40.5 62.8,40.9 L61.6,42.1 L60.4,43.3 C59.9,43.7 59.9,44.5 60.3,45 L62.3,47.9 C61.6,49 61.1,50.3 60.8,51.6 L57.4,52.2 C56.8,52.3 56.3,52.8 56.3,53.5 L56.3,55.2 L56.3,56.9 C56.3,57.5 56.8,58.1 57.4,58.2 L60.9,58.8 C61.2,60.1 61.8,61.4 62.4,62.5 L60.4,65.3 C60,65.8 60.1,66.5 60.5,67 L61.7,68.2 L62.9,69.4 C63.3,69.9 64.1,69.9 64.6,69.5 L67.5,67.5 C68.6,68.2 69.8,68.7 71.1,69 L71.7,72.4 C71.8,73 72.3,73.5 73,73.5 L74.7,73.5 L76.4,73.5 C77,73.5 77.6,73 77.7,72.4 L78.3,69 C79.6,68.7 80.9,68.2 82,67.5 L84.8,69.5 C85.3,69.9 86,69.8 86.5,69.4 L87.7,68.2 L88.9,67 C89.4,66.6 89.4,65.8 89,65.3 L87,62.5 C87.7,61.4 88.2,60.1 88.6,58.8 L92,58.2 C92.6,58.1 93.1,57.6 93.1,56.9 L93.1,55.2 L93.1,53.5 C93,52.8 92.5,52.2 91.9,52.1 Z M76.5,63.7 C71.7,64.8 66.9,61.8 65.8,57 C64.7,52.2 67.7,47.4 72.5,46.3 C77.3,45.2 82.1,48.2 83.2,53 C84.3,57.8 81.3,62.6 76.5,63.7 Z" id="Shape"></path>
        </g>
    </g>
</svg>