<svg xmlns="http://www.w3.org/2000/svg" data-name="Layer 1" viewBox="0 0 100 125" x="0px" y="0px"><title>Artboard 11</title><path d="M76.83,33.17,62,18.34,56.34,24l8,8H48A16,16,0,0,0,32,48v6.59a14,14,0,1,0,8,0V48a8,8,0,0,1,8-8H64.34l-8,8L62,53.66,76.83,38.83A4,4,0,0,0,76.83,33.17ZM42,68a6,6,0,1,1-6-6A6,6,0,0,1,42,68Z"/><text x="0" y="115" fill="#000000" font-size="5px" font-weight="bold" font-family="'Helvetica Neue', Helvetica, Arial-Unicode, Arial, Sans-serif">Created by Gregor Cresnar</text><text x="0" y="120" fill="#000000" font-size="5px" font-weight="bold" font-family="'Helvetica Neue', Helvetica, Arial-Unicode, Arial, Sans-serif">from the Noun Project</text></svg>