<svg xmlns="http://www.w3.org/2000/svg" data-name="Layer 1" viewBox="0 0 100 125" x="0px" y="0px"><title>Artboard 34</title><path d="M86.44,24.16A39.49,39.49,0,0,0,52.7,1.08Q51.36,1,50,1t-2.7.08A39.49,39.49,0,0,0,13.56,24.16c-7.27,15.47-3.66,33.91,8,46.43l25,26.9a4.73,4.73,0,0,0,6.93,0l25-26.9C90.1,58.07,93.71,39.63,86.44,24.16ZM68.38,43.23H64.58V61.92a1.92,1.92,0,0,1-1.92,1.92h-5.4a1.92,1.92,0,0,1-1.92-1.92v-9A1.92,1.92,0,0,0,53.42,51H46.59a1.92,1.92,0,0,0-1.92,1.92v9a1.92,1.92,0,0,1-1.92,1.92H37.34a1.92,1.92,0,0,1-1.92-1.92V43.23H31.62A2,2,0,0,1,30.17,40L48.55,19.68a2,2,0,0,1,2.9,0L69.83,40A2,2,0,0,1,68.38,43.23Z"/><text x="0" y="115" fill="#000000" font-size="5px" font-weight="bold" font-family="'Helvetica Neue', Helvetica, Arial-Unicode, Arial, Sans-serif">Created by Gregor Cresnar</text><text x="0" y="120" fill="#000000" font-size="5px" font-weight="bold" font-family="'Helvetica Neue', Helvetica, Arial-Unicode, Arial, Sans-serif">from the Noun Project</text></svg>