<?xml version="1.0" encoding="UTF-8"?>
<svg width="78px" height="78px" viewBox="0 0 78 78" version="1.1" xmlns="http://www.w3.org/2000/svg" xmlns:xlink="http://www.w3.org/1999/xlink">
    <title>list-icon01</title>
    <g id="Page-1" stroke="none" stroke-width="1" fill="none" fill-rule="evenodd">
        <g id="list-icon01" fill="#000000" fill-rule="nonzero">
            <path d="M0.1,17.2 L0.1,3.2 C0.1,1.5 1.5,0.1 3.2,0.1 L17.2,0.1 C18.9,0.1 20.3,1.5 20.3,3.2 L20.3,17.2 C20.3,18.9 18.9,20.3 17.2,20.3 L3.2,20.3 C1.5,20.3 0.1,18.9 0.1,17.2 Z M0.1,74.8 C0.1,76.5 1.5,77.9 3.2,77.9 L17.2,77.9 C18.9,77.9 20.3,76.5 20.3,74.8 L20.3,60.8 C20.3,59.1 18.9,57.7 17.2,57.7 L3.2,57.7 C1.5,57.7 0.1,59.1 0.1,60.8 L0.1,74.8 Z M0.1,46 C0.1,47.7 1.5,49.1 3.2,49.1 L17.2,49.1 C18.9,49.1 20.3,47.7 20.3,46 L20.3,32 C20.3,30.3 18.9,28.9 17.2,28.9 L3.2,28.9 C1.5,28.9 0.1,30.3 0.1,32 L0.1,46 Z M30.5,8.5 L76.4,8.5 C77.3,8.5 77.9,7.8 77.9,7 L77.9,4.8 C77.9,3.9 77.2,3.3 76.4,3.3 L30.5,3.3 C29.6,3.3 29,4 29,4.8 L29,7 C28.9,7.8 29.6,8.5 30.5,8.5 Z M28.9,15.6 C28.9,16.5 29.6,17.1 30.4,17.1 L52,17.1 C52.9,17.1 53.5,16.4 53.5,15.6 L53.5,13.4 C53.5,12.5 52.8,11.9 52,11.9 L30.5,11.9 C29.6,11.9 29,12.6 29,13.4 L29,15.6 L28.9,15.6 Z M28.9,35.8 C28.9,36.7 29.6,37.3 30.4,37.3 L76.3,37.3 C77.2,37.3 77.8,36.6 77.8,35.8 L77.8,33.6 C77.8,32.7 77.1,32.1 76.3,32.1 L30.5,32.1 C29.6,32.1 29,32.8 29,33.6 L29,35.8 L28.9,35.8 Z M28.9,44.4 C28.9,45.3 29.6,45.9 30.4,45.9 L52,45.9 C52.9,45.9 53.5,45.2 53.5,44.4 L53.5,42.2 C53.5,41.3 52.8,40.7 52,40.7 L30.5,40.7 C29.6,40.7 29,41.4 29,42.2 L29,44.4 L28.9,44.4 Z M28.9,64.6 C28.9,65.5 29.6,66.1 30.4,66.1 L76.3,66.1 C77.2,66.1 77.8,65.4 77.8,64.6 L77.8,62.4 C77.8,61.5 77.1,60.9 76.3,60.9 L30.5,60.9 C29.6,60.9 29,61.6 29,62.4 L29,64.6 L28.9,64.6 Z M28.9,73.3 C28.9,74.2 29.6,74.8 30.4,74.8 L52,74.8 C52.9,74.8 53.5,74.1 53.5,73.3 L53.5,71 C53.5,70.1 52.8,69.5 52,69.5 L30.5,69.5 C29.6,69.5 29,70.2 29,71 L29,73.3 L28.9,73.3 Z" id="Shape"></path>
        </g>
    </g>
</svg>