<?xml version="1.0" encoding="UTF-8"?>
<svg width="49px" height="65px" viewBox="0 0 49 65" version="1.1" xmlns="http://www.w3.org/2000/svg" xmlns:xlink="http://www.w3.org/1999/xlink">
    <title>location-icon01</title>
    <g id="Page-1" stroke="none" stroke-width="1" fill="none" fill-rule="evenodd">
        <g id="location-icon01" fill="#000000" fill-rule="nonzero">
            <path d="M3.83,38 L3.95,38.18 C4.1,38.4 4.25,38.61 4.4,38.83 L21.77,63.83 C22.2765566,64.5585234 23.1076749,64.992914 23.995,64.992914 C24.8823251,64.992914 25.7134434,64.5585234 26.22,63.83 L43.57,38.87 C43.73,38.64 43.9,38.41 44.06,38.17 L44.17,38.01 L44.17,38.01 C50.6587256,27.972996 48.7734734,14.691214 39.7479651,6.85634257 C30.7224568,-0.978528872 17.3075432,-0.978528872 8.2820349,6.85634257 C-0.743473378,14.691214 -2.62872565,27.972996 3.86,38.01 L3.83,38 Z M24,15 C29.5228475,15 34,19.4771525 34,25 C34,30.5228475 29.5228475,35 24,35 C18.4771525,35 14,30.5228475 14,25 C14,19.4771525 18.4771525,15 24,15 Z" id="Shape"></path>
        </g>
    </g>
</svg>