<svg xmlns="http://www.w3.org/2000/svg" data-name="Layer 1" viewBox="0 0 100 125" x="0px" y="0px"><title>Artboard 18</title><path d="M20,28.71h0a8.64,8.64,0,0,0,.55,3.05L34.67,74a8.63,8.63,0,0,0,8.13,6H43a8.69,8.69,0,0,0,8.14-5.64l6-15.68a2.68,2.68,0,0,1,.61-.92,2.71,2.71,0,0,1,1-.61l15.74-6,.08,0A8.73,8.73,0,0,0,80,43v-.08a8.62,8.62,0,0,0-6-8.17L31.6,20.49A8.71,8.71,0,0,0,20,28.71Zm6-.5a2.7,2.7,0,0,1,.7-1.36,2.72,2.72,0,0,1,1.34-.76,2.75,2.75,0,0,1,.63-.07,2.72,2.72,0,0,1,.9.15h.06L72.1,40.45h.08A2.62,2.62,0,0,1,74,42.95V43a2.73,2.73,0,0,1-1.73,2.54l-15.74,6a8.73,8.73,0,0,0-5,5l-6,15.72A2.69,2.69,0,0,1,43,74h-.11a2.63,2.63,0,0,1-2.48-1.82v-.07L26.24,29.86l0-.11,0-.1a2.63,2.63,0,0,1-.17-.94A2.7,2.7,0,0,1,26,28.2Z"/><text x="0" y="115" fill="#000000" font-size="5px" font-weight="bold" font-family="'Helvetica Neue', Helvetica, Arial-Unicode, Arial, Sans-serif">Created by Gregor Cresnar</text><text x="0" y="120" fill="#000000" font-size="5px" font-weight="bold" font-family="'Helvetica Neue', Helvetica, Arial-Unicode, Arial, Sans-serif">from the Noun Project</text></svg>