<?xml version="1.0" encoding="UTF-8"?>
<svg width="13px" height="16px" viewBox="0 0 13 16" version="1.1" xmlns="http://www.w3.org/2000/svg" xmlns:xlink="http://www.w3.org/1999/xlink">
    <title>home-icon</title>
    <g id="Page" stroke="none" stroke-width="1" fill="none" fill-rule="evenodd">
        <g id="Mobile---Nav-open" transform="translate(-20.000000, -76.000000)" fill="#ECF3FF" fill-rule="nonzero">
            <g id="home-icon" transform="translate(20.000000, 76.000000)">
                <path d="M12.3922312,3.78121415 C11.4090952,1.59856433 9.30751833,0.147072759 6.9364206,0.0130611888 C6.79196721,0.0043537296 6.64643581,0 6.49982639,0 C6.35321698,0 6.20768558,0.0043537296 6.06323219,0.0130611888 C3.69213446,0.147072759 1.5905576,1.59856433 0.607421602,3.78121415 C-0.568148729,6.30692154 0.0155938975,9.31752555 1.90103407,11.3616016 L5.94357303,15.7534263 C6.08828296,15.9106653 6.29128046,16 6.50386893,16 C6.71645741,16 6.91945491,15.9106653 7.06416483,15.7534263 L11.1067038,11.3616016 C12.9840589,9.31752555 13.5678015,6.30692154 12.3922312,3.78121415 Z M9.47190104,6.89467503 L8.85743512,6.89467503 L8.85743512,9.94609526 C8.85743512,10.0292323 8.8247253,10.1089642 8.76650144,10.167751 C8.70827759,10.2265377 8.62930909,10.2595638 8.54696813,10.2595638 L7.67377971,10.2595638 C7.50231352,10.2595638 7.36331272,10.1192192 7.36331272,9.94609526 L7.36331272,8.47671152 C7.36331272,8.3935745 7.3306029,8.31384255 7.27237904,8.2550558 C7.21415519,8.19626905 7.13518669,8.16324299 7.05284573,8.16324299 L5.94842408,8.16324299 C5.7769579,8.16324299 5.63795709,8.30358763 5.63795709,8.47671152 L5.63795709,9.94609526 C5.63795709,10.1192192 5.49895628,10.2595638 5.3274901,10.2595638 L4.45268466,10.2595638 C4.28121848,10.2595638 4.14221767,10.1192192 4.14221767,9.94609526 L4.14221767,6.89467503 L3.52775175,6.89467503 C3.40785625,6.88715253 3.30196902,6.8131518 3.25277201,6.70250172 C3.203575,6.59185165 3.21917526,6.46278593 3.29328449,6.36732953 L6.26535914,3.04978758 C6.32641569,2.98489606 6.41117789,2.94815484 6.49982639,2.94815484 C6.5884749,2.94815484 6.6732371,2.98489606 6.73429365,3.04978758 L9.7063683,6.36732953 C9.78047753,6.46278593 9.79607778,6.59185165 9.74688078,6.70250172 C9.69768377,6.8131518 9.59179654,6.88715253 9.47190104,6.89467503 Z" id="Shape"></path>
            </g>
        </g>
    </g>
</svg>