<?xml version="1.0" encoding="UTF-8"?>
<svg width="316px" height="170px" viewBox="0 0 316 170" version="1.1" xmlns="http://www.w3.org/2000/svg" xmlns:xlink="http://www.w3.org/1999/xlink">
    <title>Examples Illustration for your mobile3-01</title>
    <defs>
        <rect id="path-1" x="0" y="0" width="316" height="170" rx="4"></rect>
    </defs>
    <g id="Front-page-v2" stroke="none" stroke-width="1" fill="none" fill-rule="evenodd">
        <g id="app-01-copy" transform="translate(-2.000000, -2.000000)">
            <g id="Examples-Illustration-for-your-mobile3-01" transform="translate(2.000000, 2.000000)">
                <mask id="mask-2" fill="white">
                    <use xlink:href="#path-1"></use>
                </mask>
                <use id="bg" fill-opacity="0.160811844" fill="#167ACE" xlink:href="#path-1"></use>
                <g id="Group" mask="url(#mask-2)">
                    <g transform="translate(-7.000000, 17.000000)">
                        <g id="Group" stroke-width="1" fill="none" fill-rule="evenodd" transform="translate(206.000000, 20.000000)">
                            <path d="M12.4615385,45.0323746 C8.86153846,44.5747285 5.35384615,42.9272026 3.13846154,40.2728553 C-0.369230769,36.1540406 -0.184615385,29.9300538 2.4,25.353593 C2.95384615,24.4383008 3.50769231,23.6145379 4.15384615,22.6992457 C7.2,18.0312557 6.83076923,12.6310319 9.50769231,7.87151263 C10.2461538,6.5901036 14.5846154,-0.27458765 16.7076923,0.823762949 C18.1846154,1.55599668 18.5538462,6.13245751 18.9230769,7.50539576 C19.8461538,11.8072689 21.0461538,15.8345545 22.8923077,19.86184 C25.2,24.7128885 26.9538462,30.5707583 25.6615385,35.8794529 C24.1846154,42.1949689 18.7384615,45.8561375 12.4615385,45.0323746 Z" id="Path" fill="#64ADEA" fill-rule="nonzero"></path>
                            <g transform="translate(8.307692, 13.729382)" fill="#111B33" fill-rule="nonzero" id="Path">
                                <path d="M1.84615385,6.31551595 C1.47692308,5.03410691 2.58461538,2.37975963 3.69230769,1.18987982 C4.8,2.65343303e-14 2.86153846,1.37293825 2.4,2.10517198 C1.93846154,2.83740571 0.738461538,5.03410691 1.2,7.13927889 C1.66153846,9.33598009 5.26153846,17.756668 5.72307692,19.4041939 C6.18461538,21.0517198 6.73846154,28.0079403 6.92307692,34.3234562 C7.01538462,40.547443 7.56923077,55.9243513 7.56923077,55.9243513 L9.50769231,56.0158806 C9.50769231,56.0158806 8.58461538,24.8044177 8.21538462,23.1568918 C7.75384615,21.5093659 7.2,16.2922006 9.41538462,13.1802072 C11.6307692,10.0682138 13.5692308,10.5258599 13.5692308,10.5258599 C13.5692308,10.5258599 11.3538462,10.159743 9.78461538,11.7157397 C8.21538462,13.2717364 7.29230769,15.9260837 7.2,18.1227849 L1.84615385,6.31551595 Z"></path>
                                <path d="M6.73846154,25.9027683 C6.73846154,25.9027683 1.84615385,23.3399502 1.10769231,19.9533692 C1.10769231,19.9533692 0.738461538,17.756668 1.01538462,16.9329051 C1.29230769,16.1091421 0.553846154,17.0244343 0.553846154,18.2143141 C0.553846154,19.4041939 -0.646153846,22.0585412 6.73846154,26.7265312 L6.73846154,25.9027683 Z"></path>
                            </g>
                        </g>
                        <path d="M148,125 L0,125 L0,41.568771 C2.31684408,33.3091721 13.5303694,-1.95653093 37.5328741,0.0851676619 C59.496556,1.9412573 66.8177833,38.691832 78.8653726,54.282985 C81.7382592,57.9951642 84.981841,60.5936897 88.6887915,61.1505166 C88.6887915,61.1505166 91.9323732,61.614539 96.4733876,60.6864942 C98.2341891,60.3152763 100.180338,59.7584494 102.219161,58.8304046 C109.725736,55.5822477 116.768942,66.3475676 118.622417,70.0597468 C120.290545,73.4935127 131.874765,85.2796818 144.015028,85.0012684 C145.127113,85.0012684 146.146525,84.8156594 147.25861,84.6300505 L147.351284,92.7968449 L147.629305,108.01678 L147.629305,111.079328 L147.629305,111.450546 L147.629305,112.471395 L147.629305,114.791507 L147.814652,124.257564 L148,125 Z" id="Path" fill="#8EC1EB" fill-rule="nonzero"></path>
                        <path d="M112.384033,91.1142966 C111.919254,93.4272153 111.175609,95 111.175609,95 L0,95 L0,68.4476936 C-0.0923206567,68.4476936 10.0398467,77.2367846 17.4762998,66.0422582 C24.8197973,54.8477318 26.4929993,41.7103537 34.859009,42.1729374 C43.1320631,42.5430044 39.9715705,69.7429281 45.5489104,68.3551769 C51.1262502,66.9674257 48.709403,77.1442678 54.9374324,67.1524591 C61.2584176,57.1606505 58.4697477,48.7416265 63.0245752,48.3715595 C67.6723584,48.0014925 62.8386639,69.0027941 66.1850678,68.5402104 C69.5314717,68.1701434 68.2300924,80.382354 74.8299445,67.5225261 C76.5031465,64.1919232 77.8974815,59.3810524 79.1059051,54.2001146 C82.6382203,39.3049183 84.9621119,21.9117698 91.4690084,31.9960953 C97.1393039,40.9702197 96.4886143,52.8123634 96.8604369,60.4912534 C97.0463482,64.5619902 97.6040822,67.4300094 99.4631955,68.1701434 C109.316496,71.96333 112.384033,78.4395023 112.941767,84.0830239 C113.127678,86.6734928 112.848811,89.1714449 112.384033,91.1142966 Z" id="Path" fill="#F5F7FA" fill-rule="nonzero"></path>
                        <path d="M333,92.5786626 L333,70.1956423 C331.889889,68.4455296 331.057306,66.3269721 330.409742,64.3005258 C328.282029,57.300075 327.449446,49.746957 324.859188,43.0228398 C322.26893,36.2987226 317.273432,30.4036061 311.53786,31.0483845 C308.947601,31.3247181 306.542361,32.9827196 304.599668,35.2854994 C303.767085,36.2987226 303.027011,37.4040569 302.286937,38.6015025 C300.066716,42.5622838 298.771586,47.1678436 297.476457,51.7734033 C296.736383,54.5367392 295.9038,57.300075 295.163727,60.0634109 C293.59107,65.9585273 291.278339,72.5905334 286.652878,74.0643125 C282.86,75.261758 278.974612,72.3141998 276.106826,68.9981968 C273.146531,65.5900826 270.556273,61.53719 266.855904,59.6949661 C261.767896,57.0237414 255.847306,59.4186325 251.221844,63.3794139 C246.596383,67.3401953 242.896014,72.7747558 238.54808,77.1960931 C236.512877,79.3146506 234.292656,81.1568745 231.887416,82.4464312 C231.332361,82.7227648 230.869815,82.9990984 230.314759,83.1833208 C229.297158,83.6438767 228.187047,83.9202103 227.076936,84.1044327 C223.00653,84.7492111 217.826014,84.2886551 215.420774,88.7099925 C214.865719,89.8153268 214.958228,92.762885 215.143246,94.9735537 C215.235755,95.8025545 215.328265,96.539444 215.328265,97 L332.814982,97 L332.814982,92.5786626 L333,92.5786626 Z" id="Path" fill="#8EC1EB" fill-rule="nonzero"></path>
                        <path d="M150.523764,108.051166 C150.431248,109.25563 150.246216,110.367444 150.061184,111.293955 C150.061184,111.386606 150.061184,111.571908 149.968668,111.66456 C149.876151,112.035164 149.876151,112.405769 149.783635,112.776373 C149.506087,114.16614 149.321055,115 149.321055,115 L0,115 L0,90.2621504 C0,90.2621504 0.0925161428,90.2621504 0.185032286,90.3548016 C2.96051657,91.2813128 34.7860697,101.380285 55.5096857,88.3164769 C77.2509793,74.6041108 82.5243994,69.8789036 106.393564,81.8308983 C108.521436,82.8500607 110.464275,83.7765719 112.314597,84.5177809 C126.377051,90.1694993 134.425956,88.1311746 141.457182,90.1694993 C143.400021,90.725406 145.250344,91.6519173 147.193183,93.0416841 C147.933312,93.5975908 148.673442,94.2461487 149.413571,94.8947065 C151.448926,96.9330312 151.171377,103.048005 150.523764,108.051166 Z" id="Path" fill="#FFFFFF" fill-rule="nonzero"></path>
                        <path d="M333,94.4710702 C323.078182,87.9812551 313.712727,94.6564935 291.18,83.809231 C266.236364,71.8494288 260.765455,76.6704344 238.047273,90.2990462 C231,94.5637819 222.747273,96.3253031 214.68,96.7888614 C196.783636,97.8086895 180,92.2459907 180,92.2459907 L180,117 L333,117 L333,98.8285176 L333,94.4710702 Z" id="Path" fill="#FFFFFF" fill-rule="nonzero"></path>
                        <path d="M249,110 L69.374734,110 C69.374734,110 63.0056984,93.6332003 71.1285264,84.4383691 C77.2206475,77.5422456 88.8510604,76.3469176 97.4354128,79.7490051 C103.527534,82.1396613 108.050472,87.3807151 112.94263,91.7022858 C117.927093,96.0238565 124.388433,99.7937373 130.757469,98.230616 C138.603382,96.3916497 142.387882,87.8404566 145.157028,80.300695 C146.449296,76.7147108 147.741564,73.2206749 149.033832,69.6346907 C151.156844,63.7499987 153.372161,57.7733584 157.064355,52.7162012 C160.75655,47.659044 166.294842,43.6133183 172.571572,43.0616284 C182.263583,42.2340936 190.755631,49.8658035 195.093959,58.4169966 C197.493886,63.1983089 198.970764,68.3474144 200.447641,73.4965199 C201.647605,77.6341939 202.755263,81.771868 204.324446,85.7256455 C206.447458,91.1505959 210.139652,96.759443 215.862554,97.7708744 C219.000919,98.3225643 222.139284,97.2191845 225.27765,96.2077531 C228.87754,95.012425 232.385124,93.7251487 235.985014,94.6446318 C240.323343,95.8399598 243.092489,99.8856856 245.40011,103.655566 C245.492415,103.839463 245.677025,104.115308 245.76933,104.299205 C245.76933,104.391153 245.861635,104.483101 245.861635,104.483101 C246.876988,106.138171 247.984646,108.069085 249,110 Z" id="Path" fill="#8EC1EB" fill-rule="nonzero"></path>
                        <path d="M288,116 L155.761839,116 C155.761839,116 151.039047,104.014167 157.058291,97.3350383 C161.595875,92.3028182 170.115421,91.3878691 176.412476,93.8582317 C180.95006,95.596635 184.191191,99.4394212 187.802738,102.550248 C191.414284,105.75257 196.229679,108.405922 200.952471,107.307984 C206.693904,105.93556 209.56462,99.7139059 211.509299,94.2242113 C212.435336,91.6623538 213.361374,89.0090014 214.380015,86.4471439 C215.954279,82.1468831 217.528543,77.7551274 220.306656,74.095331 C222.992164,70.4355346 227.06673,67.4162025 231.696917,67.0502229 C238.827406,66.4097585 245.031858,71.9909481 248.272989,78.3040969 C250.032461,81.7809035 251.143706,85.5321948 252.254951,89.2834861 C253.088385,92.3028182 254.014422,95.3221502 255.125667,98.1584925 C256.699931,102.092774 259.38544,106.210045 263.645213,106.942004 C265.960306,107.307984 268.2754,106.576024 270.590494,105.75257 C273.276003,104.837621 275.868908,103.922672 278.461813,104.563136 C281.610341,105.38659 283.647624,108.314428 285.407095,111.15077 C285.499699,111.33376 285.592302,111.425254 285.684906,111.608244 C285.684906,111.699739 285.77751,111.699739 285.77751,111.791234 C286.425736,113.163658 287.25917,114.627576 288,116 Z" id="Path" fill="#FFFFFF" fill-rule="nonzero"></path>
                        <path d="M201,125.322103 C197.493113,127.137308 193.801653,128.407951 189.92562,129.315553 C181.158402,131.403038 171.745179,131.493798 162.608815,131.584559 C144.520661,131.675319 126.432507,131.856839 108.252066,131.9476 C97.177686,132.03836 86.1955923,132.12912 75.2134986,131.130758 C65.4311295,130.223155 55.6487603,128.498711 45.8663912,127.681869 L45.8663912,127.681869 C39.4063361,127.137308 33.0385675,127.046547 26.5785124,127.772629 C17.8112948,128.770992 9.22865014,131.493798 0,131.584559 L0,100 C0.0922865014,100 0.0922865014,100 0.184573003,100 C0.830578512,100.09076 1.10743802,100.18152 1.47658402,100.272281 C4.61432507,100.998362 7.65977961,101.633684 10.7975207,102.269006 C11.4435262,102.359766 12.0895317,102.541286 12.7355372,102.632047 C20.4876033,104.08421 28.3319559,105.173333 36.1763085,105.536374 C42.6363636,105.899415 49.0964187,105.717894 55.4641873,104.991812 C59.4325069,104.538011 63.3085399,103.90269 67.2768595,103.176608 C75.0289256,101.815205 82.8732782,100.363041 90.6253444,100.363041 C91.6404959,100.363041 92.5633609,100.363041 93.5785124,100.453801 C95.7011019,100.544561 97.731405,100.816842 99.8539945,101.179883 C108.252066,102.722807 116.004132,106.807017 124.49449,108.259181 C131.969697,109.620584 139.629477,108.985262 147.19697,108.440701 C148.212121,108.349941 149.227273,108.259181 150.242424,108.259181 C151.349862,108.16842 152.365014,108.16842 153.472452,108.07766 C157.348485,107.89614 161.224518,107.9869 165.008264,108.531461 C168.792011,109.076023 172.483471,110.074385 176.082645,111.435788 C176.451791,111.617309 176.820937,111.708069 177.282369,111.88959 C178.205234,112.252631 179.128099,112.615671 180.050964,113.069473 C181.250689,113.614034 182.5427,114.158595 183.742424,114.793917 C184.480716,115.156958 185.311295,115.610759 186.049587,115.9738 C191.125344,118.968887 196.108815,122.145495 201,125.322103 Z" id="Path" fill="#F5F7FA" fill-rule="nonzero"></path>
                        <path d="M333,116.554455 L333,158 C332.907449,158 332.814897,158 332.722346,157.908911 C331.70428,157.635644 330.686215,157.362376 329.853252,156.724752 C324.300167,152.261386 318.65453,148.253465 312.268482,145.065347 C306.067538,142.059406 299.496387,139.873267 292.832685,138.415842 C262.383268,132.039604 220.457476,131.037624 190.378266,129.762376 C174.36687,129.033663 161.687326,128.30495 155.856587,126.665347 C153.820456,126.118812 151.043913,125.481188 147.712062,125.025743 C125.962479,121.564356 79.1314619,118.831683 45.0725403,117.283168 C37.2056698,116.918812 29.9866593,116.645545 23.9708171,116.372277 C19.065592,116.190099 13.5125069,115.916832 8.88493608,115.734653 C5.18287938,115.552475 2.03613118,115.370297 0.0925514175,115.279208 C0.0925514175,115.279208 0.0925514175,115.279208 0,115.279208 L0,114.641584 C0,114.641584 0,114.641584 0.0925514175,114.641584 C6.84880489,113.639604 27.3952196,113.00198 50.1628683,112.546535 L50.1628683,112.546535 C60.528627,112.364356 71.2645914,112.182178 81.3526959,112.091089 L81.815453,112.091089 C87.2759867,112 92.458866,112 97.3640912,112 C103.84269,112 109.67343,112 114.393552,112 C119.854086,112 123.926348,112.091089 125.962479,112.182178 C126.332685,112.182178 126.70289,112.182178 127.073096,112.273267 L127.165648,112.273267 C132.163424,112.546535 139.567538,112.910891 147.526959,113.366337 C148.267371,113.366337 149.100334,113.457426 149.840745,113.457426 C151.414119,113.548515 152.987493,113.639604 154.560867,113.730693 C163.723457,114.186139 173.071151,114.732673 180.382713,115.188119 C181.678432,115.279208 182.881601,115.370297 184.084769,115.370297 C186.953863,115.552475 189.267649,115.643564 190.933574,115.825743 C193.89522,116.007921 205.741801,116.190099 221.290439,116.372277 C233.599778,116.463366 248.315453,116.554455 263.031128,116.645545 C297.552807,116.554455 331.889383,116.554455 333,116.554455 C333,116.554455 333,116.554455 333,116.554455 Z" id="Path" fill="#FFFFFF" fill-rule="nonzero"></path>
                    </g>
                </g>
            </g>
        </g>
    </g>
</svg>