<?xml version="1.0" encoding="UTF-8"?>
<svg width="13px" height="16px" viewBox="0 0 13 16" version="1.1" xmlns="http://www.w3.org/2000/svg" xmlns:xlink="http://www.w3.org/1999/xlink">
    <title>article-icon</title>
    <g id="Page" stroke="none" stroke-width="1" fill="none" fill-rule="evenodd">
        <g id="Mobile---Nav-open" transform="translate(-20.000000, -140.000000)" fill="#ECF3FF" fill-rule="nonzero">
            <g id="article-icon" transform="translate(20.000000, 140.000000)">
                <path d="M12.3922312,3.78121415 C11.4090952,1.59856433 9.30751833,0.147072759 6.9364206,0.0130611888 C6.79196721,0.0043537296 6.64643581,0 6.49982639,0 C6.35321698,0 6.20768558,0.0043537296 6.06323219,0.0130611888 C3.69213446,0.147072759 1.5905576,1.59856433 0.607421602,3.78121415 C-0.568148729,6.30692154 0.0155938975,9.31752555 1.90103407,11.3616016 L5.94357303,15.7534263 C6.08828296,15.9106653 6.29128046,16 6.50386893,16 C6.71645741,16 6.91945491,15.9106653 7.06416483,15.7534263 L11.1067038,11.3616016 C12.9840589,9.31752555 13.5678015,6.30692154 12.3922312,3.78121415 Z M8.5,4 C9.32842712,4 10,4.67157288 10,5.5 L10,5.5 L10,10 C10,10.5522847 9.55228475,11 9,11 L9,11 L5,11 C4.44771525,11 4,10.5522847 4,10 L4,10 L4,7.5 L2,7.5 L2,5.5 C2,4.67157288 2.67157288,4 3.5,4 L3.5,4 Z M8.5,5 L4.9125,5 C4.97005012,5.16043521 4.99964616,5.32955544 5,5.5 L5,5.5 L5,10 L9,10 L9,5.5 C9,5.22385763 8.77614237,5 8.5,5 L8.5,5 Z M8.125,8 L8.125,9 L5.875,9 L5.875,8 L8.125,8 Z M8.125,6 L8.125,7 L5.875,7 L5.875,6 L8.125,6 Z M3.5,5 C3.22385763,5 3,5.22385763 3,5.5 L3,5.5 L3,6.5 L4,6.5 L4,5.5 C4,5.22385763 3.77614237,5 3.5,5 Z" id="Shape"></path>
            </g>
        </g>
    </g>
</svg>