<?xml version="1.0" encoding="UTF-8"?>
<svg width="13px" height="16px" viewBox="0 0 13 16" version="1.1" xmlns="http://www.w3.org/2000/svg" xmlns:xlink="http://www.w3.org/1999/xlink">
    <title>info-icon</title>
    <g id="Page" stroke="none" stroke-width="1" fill="none" fill-rule="evenodd">
        <g id="Mobile---Nav-open" transform="translate(-20.000000, -108.000000)" fill="#ECF3FF" fill-rule="nonzero">
            <g id="info-icon" transform="translate(20.000000, 108.000000)">
                <path d="M6.49982639,0 C6.64643581,0 6.79196721,0.0043537296 6.9364206,0.0130611888 C9.30751833,0.147072759 11.4090952,1.59856433 12.3922312,3.78121415 C13.5678015,6.30692154 12.9840589,9.31752555 11.1067038,11.3616016 L11.1067038,11.3616016 L7.06416483,15.7534263 C6.91945491,15.9106653 6.71645741,16 6.50386893,16 C6.29128046,16 6.08828296,15.9106653 5.94357303,15.7534263 L5.94357303,15.7534263 L1.90103407,11.3616016 C0.0155938975,9.31752555 -0.568148729,6.30692154 0.607421602,3.78121415 C1.5905576,1.59856433 3.69213446,0.147072759 6.06323219,0.0130611888 C6.20768558,0.0043537296 6.35321698,0 6.49982639,0 Z M7,6 L6,6 C5.44771525,6 5,6.44771525 5,7 L5,7 L5,10 C5,10.5522847 5.44771525,11 6,11 L6,11 L7,11 C7.55228475,11 8,10.5522847 8,10 L8,10 L8,7 C8,6.44771525 7.55228475,6 7,6 L7,6 Z M7,3 L6,3 C5.44771525,3 5,3.44771525 5,4 C5,4.55228475 5.44771525,5 6,5 L7,5 C7.55228475,5 8,4.55228475 8,4 C8,3.44771525 7.55228475,3 7,3 Z" id="Shape"></path>
            </g>
        </g>
    </g>
</svg>