<svg xmlns="http://www.w3.org/2000/svg" viewBox="0 0 94 17">
  <g fill="#FFF" fill-rule="evenodd">
    <path fill-rule="nonzero" d="M18.1042176 8.0166912h.4470682c.1797743 0 .3287955-.02483687.4470681-.07451136s.2199855-.12891594.3051418-.23772672l2.8314317-3.5836416c.1182726-.15138892.2424569-.25664994.3725568-.31578624.1300998-.0591363.2944962-.088704.4931942-.088704h1.6463462L21.1911168 7.9812096c-.2034289.2601997-.4139509.44470218-.6315725.55351296.1561198.05677084.2968621.13601229.4222311.23772672.1253689.10171443.2448224.23536045.3583641.40094208L24.9024922 13.9776h-1.6818279c-.2270834 0-.3962106-.0319331-.5073869-.0958003-.1111762-.0638672-.2046101-.1573012-.2803046-.2803047l-2.9023949-3.78943484c-.0898871-.1277344-.1939655-.21762022-.3122381-.26966016-.1182726-.05203994-.2885825-.07805952-.510935-.07805952h-.6031872V13.9776h-1.9089101V3.71632128h1.9089101V8.0166912zm11.3895936 2.8527206c-.5062067.0236546-.9319816.0674148-1.2773376.131282-.345356.0638672-.6221097.145474-.8302694.244823-.2081598.099349-.357181.2152544-.4470682.3477197s-.1348301.2767557-.1348301.4328755c0 .3075087.0910685.5274925.2732083.6599578.1821398.1324653.4198642.1986969.7131802.1986969.3595487 0 .6706009-.0650489.9331661-.1951488.2625651-.1300998.5192128-.3276121.7699507-.5925427v-1.2276634zm-4.0165171-3.15786236c.8373699-.76640639 1.8450373-1.14960384 3.0230323-1.14960384.4257813 0 .8066134.06977978 1.1425075.20934144.3358942.13956166.6197441.3335258.8515584.58189824.2318143.24837244.4080378.54523219.5286759.89058816.120638.34535597.1809561.72382258.1809561 1.1354112V13.9776h-.7947878c-.1655816 0-.2933141-.0248369-.3832013-.0745114-.0898872-.0496744-.1608497-.1502046-.2128896-.3015936l-.156119-.5251276c-.1845053.1655816-.3642769.3110547-.5393204.4364236-.1750434.125369-.3571805.23063-.5464166.3157863-.1892361.0851562-.3914792.1502052-.6067354.1951488-.2152561.0449436-.4529804.067415-.7131801.067415-.3075088 0-.5913587-.0413948-.8515584-.1241856-.2601997-.0827908-.4849143-.2069752-.6741504-.3725568-.1892362-.1655816-.335892-.3713728-.4399719-.6173798-.1040798-.246007-.156119-.5322224-.156119-.8586547 0-.1845053.0307504-.367825.0922522-.5499648.0615017-.1821398.1620319-.3559979.3015936-.5215796.1395616-.1655816.320516-.3216991.5428684-.4683571.2223525-.146658.4955581-.2743905.819625-.3832013.3240669-.1088107.7013508-.19751386 1.131863-.26611196.4305123-.0685981.9225189-.10999289 1.4760346-.1241856v-.4257792c0-.48728308-.1040783-.84800907-.3122381-1.0821888-.2081597-.23417973-.5085676-.35126784-.9012326-.35126784-.2838542 0-.5192132.03311583-.7060839.09934848-.1868707.06623265-.3512671.14074327-.4931942.22353408l-.3867494.22353408c-.1159072.06623265-.2448224.09934848-.3867495.09934848-.1230035 0-.2270818-.03193312-.3122381-.09580032-.0851562-.0638672-.1537533-.13837781-.2057932-.22353408l-.3122381-.56060928zM36.696576 10.8694118c-.5062067.0236546-.9319816.0674148-1.2773376.131282-.345356.0638672-.6221097.145474-.8302694.244823-.2081598.099349-.357181.2152544-.4470682.3477197s-.1348301.2767557-.1348301.4328755c0 .3075087.0910685.5274925.2732083.6599578.1821398.1324653.4198642.1986969.7131802.1986969.3595487 0 .6706009-.0650489.9331661-.1951488.2625651-.1300998.5192128-.3276121.7699507-.5925427v-1.2276634zm-4.0165171-3.15786236c.8373699-.76640639 1.8450373-1.14960384 3.0230323-1.14960384.4257813 0 .8066134.06977978 1.1425075.20934144.3358942.13956166.6197441.3335258.8515584.58189824.2318143.24837244.4080378.54523219.5286759.89058816.120638.34535597.1809561.72382258.1809561 1.1354112V13.9776h-.7947878c-.1655816 0-.2933141-.0248369-.3832013-.0745114-.0898872-.0496744-.1608497-.1502046-.2128896-.3015936l-.156119-.5251276c-.1845053.1655816-.3642769.3110547-.5393204.4364236-.1750434.125369-.3571805.23063-.5464166.3157863-.1892361.0851562-.3914792.1502052-.6067354.1951488-.2152561.0449436-.4529804.067415-.7131801.067415-.3075088 0-.5913587-.0413948-.8515584-.1241856-.2601997-.0827908-.4849143-.2069752-.6741504-.3725568-.1892362-.1655816-.335892-.3713728-.4399719-.6173798-.1040798-.246007-.156119-.5322224-.156119-.8586547 0-.1845053.0307504-.367825.0922522-.5499648.0615017-.1821398.1620319-.3559979.3015936-.5215796.1395616-.1655816.320516-.3216991.5428684-.4683571.2223525-.146658.4955581-.2743905.819625-.3832013.3240669-.1088107.7013508-.19751386 1.131863-.26611196.4305123-.0685981.9225189-.10999289 1.4760346-.1241856v-.4257792c0-.48728308-.1040783-.84800907-.3122381-1.0821888-.2081597-.23417973-.5085676-.35126784-.9012326-.35126784-.2838542 0-.5192132.03311583-.7060839.09934848-.1868707.06623265-.3512671.14074327-.4931942.22353408l-.3867494.22353408c-.1159072.06623265-.2448224.09934848-.3867495.09934848-.1230035 0-.2270818-.03193312-.3122381-.09580032-.0851562-.0638672-.1537533-.13837781-.2057932-.22353408l-.3122381-.56060928zm11.8153728.40449024c-.0473091.07569446-.0969828.12891633-.1490227.1596672-.05204.03075087-.1182716.04612608-.198697.04612608-.0851563 0-.1762248-.02365416-.2732083-.0709632l-.2144664-.10250232c-.0391611-.01839784-.0800307-.03745278-.1226088-.05716488-.1277344-.0591363-.2732075-.11235816-.4364237-.1596672-.1632162-.04730904-.3559976-.0709632-.5783501-.0709632-.3453559 0-.6161961.07332791-.8125286.21998592-.1963325.14665801-.2944973.33825674-.2944973.57480192 0 .15611982.0508565.28740043.1525709.39384576.1017144.10644533.2365431.19987928.4044902.28030464.1679471.08042536.3583631.15257056.5712538.21643776.2128906.0638672.4293262.13364698.6493133.20934144.219987.07569446.4364226.16203216.6493132.2590157.2128907.0969835.4033067.2199852.5712538.3690086.1679471.1490235.3027758.3276124.4044902.5357722.1017145.2081597.1525709.4588939.1525709.7522099 0 .3500869-.0626835.6729662-.1880525.9686477-.1253689.2956815-.3110541.5511464-.5570611.7664025-.246007.2152562-.549963.3832007-.9118771.5038388-.3619141.120638-.7794101.1809561-1.2525005.1809561-.2507379 0-.4955585-.0224714-.7344691-.067415-.2389106-.0449436-.468356-.1076271-.688343-.1880525-.2199871-.0804254-.4234129-.175042-.6102836-.2838528-.1868707-.1088108-.3512671-.2270816-.4931942-.354816l.4044902-.6670541c.05204-.0804253.1135408-.1419262.1845044-.1845043.0709635-.0425781.1608493-.0638669.2696601-.0638669.1088108 0 .2117064.0307504.3086899.0922522.0969836.0615017.2093408.1277334.3370752.1986969.1277344.0709636.2779384.1371953.4506164.198697.1726779.0615017.391479.0922522.6564096.0922522.2081597 0 .3867487-.0248369.5357721-.0745114.1490235-.0496745.2720251-.1147234.3690087-.1951488.0969835-.0804254.167946-.1738593.2128896-.2803046.0449435-.1064454.067415-.2164372.067415-.3299789 0-.1703126-.0508565-.3098721-.1525709-.4186829-.1017144-.1088108-.2365431-.2034274-.4044902-.2838528-.1679471-.0804254-.3595458-.1525706-.5748019-.2164378-.2152562-.0638672-.4352399-.1336469-.6599578-.2093414-.2247179-.0756945-.4447016-.1643976-.6599578-.266112-.2152561-.1017144-.4068548-.2306296-.5748019-.3867494-.1679471-.1561199-.3027758-.34771858-.4044902-.57480196-.1017144-.22708338-.1525709-.50147167-.1525709-.82317312 0-.29804693.0591354-.58189689.177408-.8515584.1182726-.26966151.2921307-.50502043.5215795-.70608384.2294488-.20106341.5156642-.36191172.8586547-.48254976.3429906-.12063804.7391978-.18095616 1.1886336-.18095616.5014758 0 .9580012.08278957 1.3695898.2483712.4115886.16558163.754574.38319993 1.0289664.65286144l-.3973939.63157248zm8.0685158-1.419264V13.9776h-1.0715443c-.2318143 0-.3784701-.1064437-.4399718-.3193344l-.1206375-.5818982c-.2980469.3027778-.6268398.5475984-.9863885.7344691-.3595486.1868707-.7829582.2803046-1.2702412.2803046-.3973959 0-.7486603-.0674143-1.0538036-.2022451-.3051432-.1348308-.5617909-.3252468-.7699507-.5712538-.2081597-.246007-.3654599-.5381359-.4719053-.8763955-.1064453-.3382596-.1596672-.7108127-.1596672-1.1176704V6.69677568h1.7527911v4.62680062c0 .444705.1028956.788873.3086899 1.0325146.2057943.2436415.5144811.3654605.9260698.3654605.3027778 0 .5866278-.0674144.8515584-.2022452.2649306-.1348307.5156647-.3205159.7522099-.5570611V6.69677568h1.752791zm3.5055821-3.2643072V13.9776h-1.752791V3.43246848h1.752791zm3.526871 0V13.9776h-1.752791V3.43246848h1.752791zm5.5989965 7.43694332c-.5062067.0236546-.9319816.0674148-1.2773376.131282-.3453559.0638672-.6221097.145474-.8302694.244823-.2081598.099349-.357181.2152544-.4470682.3477197-.0898871.1324653-.1348301.2767557-.1348301.4328755 0 .3075087.0910686.5274925.2732084.6599578.1821398.1324653.4198641.1986969.7131801.1986969.3595487 0 .6706009-.0650489.9331661-.1951488.2625652-.1300998.5192128-.3276121.7699507-.5925427v-1.2276634zM61.17888 7.71154944c.8373699-.76640639 1.8450373-1.14960384 3.0230323-1.14960384.4257813 0 .8066134.06977978 1.1425075.20934144.3358942.13956166.6197442.3335258.8515584.58189824.2318143.24837244.4080378.54523219.5286759.89058816.120638.34535597.1809561.72382258.1809561 1.1354112V13.9776h-.7947878c-.1655816 0-.2933141-.0248369-.3832013-.0745114-.0898871-.0496744-.1608496-.1502046-.2128896-.3015936l-.156119-.5251276c-.1845053.1655816-.3642769.3110547-.5393203.4364236-.1750435.125369-.3571805.23063-.5464167.3157863-.1892361.0851562-.3914792.1502052-.6067353.1951488-.2152562.0449436-.4529805.067415-.7131802.067415-.3075087 0-.5913587-.0413948-.8515584-.1241856-.2601997-.0827908-.4849143-.2069752-.6741504-.3725568-.1892361-.1655816-.335892-.3713728-.4399718-.6173798-.1040799-.246007-.1561191-.5322224-.1561191-.8586547 0-.1845053.0307504-.367825.0922522-.5499648.0615017-.1821398.1620319-.3559979.3015936-.5215796.1395616-.1655816.320516-.3216991.5428685-.4683571.2223524-.146658.495558-.2743905.8196249-.3832013.3240669-.1088107.7013508-.19751386 1.1318631-.26611196.4305122-.0685981.9225188-.10999289 1.4760345-.1241856v-.4257792c0-.48728308-.1040783-.84800907-.3122381-1.0821888-.2081597-.23417973-.5085676-.35126784-.9012326-.35126784-.2838542 0-.5192131.03311583-.7060838.09934848-.1868707.06623265-.3512672.14074327-.4931943.22353408l-.3867494.22353408c-.1159072.06623265-.2448224.09934848-.3867495.09934848-.1230035 0-.2270818-.03193312-.312238-.09580032-.0851563-.0638672-.1537534-.13837781-.2057933-.22353408l-.3122381-.56060928zm7.117609 5.30095106c0-.146658.0272022-.2862176.0816076-.4186829.0544054-.1324653.128916-.2460053.2235341-.3406234.0946181-.094618.2081581-.1703114.3406234-.2270822.1324653-.0567708.2743903-.0851558.4257792-.0851558.1513889 0 .2921312.028385.422231.0851558.1300999.0567708.2436399.1324642.3406234.2270822.0969835.0946181.1738595.2081581.2306304.3406234.0567708.1324653.0851558.2720249.0851558.4186829 0 .1513889-.028385.2921312-.0851558.422231-.0567709.1300999-.1336469.2424571-.2306304.3370752-.0969835.0946181-.2105235.1691287-.3406234.2235341-.1300998.0544054-.2708421.0816077-.422231.0816077-.1513889 0-.2933139-.0272023-.4257792-.0816077-.1324653-.0544054-.2460053-.128916-.3406234-.2235341-.0946181-.0946181-.1691287-.2069753-.2235341-.3370752-.0544054-.1300998-.0816076-.2708421-.0816076-.422231zm7.4724249-2.1430887c-.5062067.0236546-.9319816.0674148-1.2773376.131282-.3453559.0638672-.6221097.145474-.8302694.244823-.2081598.099349-.357181.2152544-.4470682.3477197-.0898871.1324653-.1348301.2767557-.1348301.4328755 0 .3075087.0910686.5274925.2732084.6599578.1821398.1324653.4198641.1986969.7131801.1986969.3595487 0 .6706009-.0650489.9331661-.1951488.2625652-.1300998.5192128-.3276121.7699507-.5925427v-1.2276634zm-4.0165171-3.15786236c.8373699-.76640639 1.8450373-1.14960384 3.0230323-1.14960384.4257813 0 .8066134.06977978 1.1425075.20934144.3358942.13956166.6197442.3335258.8515584.58189824.2318143.24837244.4080378.54523219.5286759.89058816.120638.34535597.1809561.72382258.1809561 1.1354112V13.9776h-.7947878c-.1655816 0-.2933141-.0248369-.3832013-.0745114-.0898871-.0496744-.1608496-.1502046-.2128896-.3015936l-.156119-.5251276c-.1845053.1655816-.3642769.3110547-.5393203.4364236-.1750435.125369-.3571805.23063-.5464167.3157863-.1892361.0851562-.3914792.1502052-.6067353.1951488-.2152562.0449436-.4529805.067415-.7131802.067415-.3075087 0-.5913587-.0413948-.8515584-.1241856-.2601997-.0827908-.4849143-.2069752-.6741504-.3725568-.1892361-.1655816-.335892-.3713728-.4399718-.6173798-.1040799-.246007-.1561191-.5322224-.1561191-.8586547 0-.1845053.0307504-.367825.0922522-.5499648.0615017-.1821398.1620319-.3559979.3015936-.5215796.1395616-.1655816.320516-.3216991.5428685-.4683571.2223524-.146658.495558-.2743905.8196249-.3832013.3240669-.1088107.7013508-.19751386 1.1318631-.26611196.4305122-.0685981.9225188-.10999289 1.4760345-.1241856v-.4257792c0-.48728308-.1040783-.84800907-.3122381-1.0821888-.2081597-.23417973-.5085676-.35126784-.9012326-.35126784-.2838542 0-.5192131.03311583-.7060838.09934848-.1868707.06623265-.3512672.14074327-.4931943.22353408l-.3867494.22353408c-.1159072.06623265-.2448224.09934848-.3867495.09934848-.1230035 0-.2270818-.03193312-.312238-.09580032-.0851563-.0638672-.1537534-.13837781-.2057933-.22353408l-.3122381-.56060928zm9.1258675 4.37842946c.198698.2412761.4151336.411586.6493133.510935.2341797.099349.488462.1490227.7628544.1490227.2649306 0 .5038377-.0496737.7167283-.1490227.2128907-.099349.393845-.2507356.5428685-.4541645.1490235-.2034288.2637462-.4600765.3441715-.7699507.0804254-.3098742.1206375-.675331.1206375-1.0963814 0-.42578135-.0342986-.78650734-.1028967-1.08218882-.0685981-.29568148-.1667629-.53577124-.2944973-.72027648-.1277344-.18450524-.2826691-.31933397-.4648089-.40449024-.1821398-.08515627-.3891137-.12773376-.620928-.12773376-.3642796 0-.6741491.07687603-.9296179.2306304-.2554688.15375437-.4967413.37018996-.7238247.64931328v3.26430722zm-.0922521-4.39971842c.2980469-.33589416.6363014-.60791704 1.0147737-.8160768.3784723-.20815976.8231706-.31223808 1.3341082-.31223808.3973959 0 .7604873.08278957 1.0892851.2483712.3287978.16558163.6126478.40567139.8515584.72027648.2389106.31460509.4234131.70253337.553513 1.16379648.1300998.46126311.1951488.98993366.1951488 1.58602754 0 .5440539-.0733279 1.0478876-.219986 1.5115161-.146658.4636286-.3559973.8657494-.6280243 1.2063744-.2720269.3406251-.6008198.6067344-.9863885.798336-.3855686.1916016-.8172571.287401-1.2950784.287401-.4068577 0-.7545739-.0626835-1.043159-.1880525-.2885851-.1253689-.5464155-.299227-.7734989-.5215795v2.9804544h-1.752791V6.69677568h1.0715443c.2270834 0 .3761046.10644374.4470682.3193344l.1419264.6741504zm8.1536716 4.39971842c.198698.2412761.4151336.411586.6493133.510935.2341798.099349.488462.1490227.7628544.1490227.2649306 0 .5038377-.0496737.7167283-.1490227.2128907-.099349.3938451-.2507356.5428685-.4541645.1490235-.2034288.2637462-.4600765.3441715-.7699507.0804254-.3098742.1206375-.675331.1206375-1.0963814 0-.42578135-.0342986-.78650734-.1028967-1.08218882-.0685981-.29568148-.1667628-.53577124-.2944972-.72027648-.1277344-.18450524-.2826692-.31933397-.464809-.40449024-.1821398-.08515627-.3891137-.12773376-.620928-.12773376-.3642796 0-.6741491.07687603-.9296179.2306304-.2554688.15375437-.4967413.37018996-.7238247.64931328v3.26430722zm-.0922521-4.39971842c.2980469-.33589416.6363014-.60791704 1.0147737-.8160768.3784723-.20815976.8231706-.31223808 1.3341082-.31223808.3973959 0 .7604873.08278957 1.0892851.2483712.3287978.16558163.6126478.40567139.8515584.72027648.2389107.31460509.4234131.70253337.553513 1.16379648.1300998.46126311.1951488.98993366.1951488 1.58602754 0 .5440539-.0733279 1.0478876-.2199859 1.5115161-.1466581.4636286-.3559974.8657494-.6280244 1.2063744-.2720269.3406251-.6008198.6067344-.9863884.798336-.3855687.1916016-.8172572.287401-1.2950784.287401-.4068578 0-.754574-.0626835-1.0431591-.1880525-.2885851-.1253689-.5464155-.299227-.7734989-.5215795v2.9804544h-1.752791V6.69677568h1.0715443c.2270834 0 .3761046.10644374.4470682.3193344l.1419264.6741504z"/>
    <path d="M5.80667286 0C9.01295487 0 11.61216 2.63318976 11.61216 5.88139394c0 .06610498-.0010765.13195524-.0032128.19753377.0012447.00331695.0005611.00395627-.0001223.00459559-.072663 2.17449819-1.3100507 4.0493372-3.09997029 5.004674-.84537686 3.2997464.4496753 5.8999627-.01872463 5.8999627-1.35521959 0-8.2466224-3.7994787-8.48385413-10.32126294L0 6.3211374v-.23953205c.00034274-.02718272.00121752-.05431228.00261752-.08138461l-.0014318-.1188268C.00118573 2.63318976 2.60039086 0 5.80667287 0zm0 3.92092929c-1.06876067 0-1.93516237.87772992-1.93516237 1.96046465 0 1.08273473.8664017 1.96046464 1.93516237 1.96046464s1.93516238-.87772991 1.93516238-1.96046464-.86640171-1.96046465-1.93516238-1.96046465z"/>
  </g>
</svg>
