<?xml version="1.0" encoding="UTF-8"?>
<svg width="79px" height="15px" viewBox="0 0 79 15" version="1.1" xmlns="http://www.w3.org/2000/svg" xmlns:xlink="http://www.w3.org/1999/xlink">
    <!-- Generator: Sketch 58 (84663) - https://sketch.com -->
    <title>Group</title>
    <desc>Created with Sketch.</desc>
    <g id="App" stroke="none" stroke-width="1" fill="none" fill-rule="evenodd">
        <g id="Mobile---Localhost-versio" transform="translate(-108.000000, -991.000000)" fill="#FFFFFF">
            <g id="Group" transform="translate(108.000000, 991.000000)">
                <path d="M15.086848,6.680576 L15.4594048,6.680576 C15.6092167,6.680576 15.7334011,6.65987861 15.8319616,6.6184832 C15.9305221,6.57708779 16.0152828,6.51105325 16.0862464,6.4203776 L18.4457728,3.4340096 C18.5443333,3.30785217 18.6478203,3.22013465 18.7562368,3.1708544 C18.8646533,3.12157415 19.0016504,3.0969344 19.167232,3.0969344 L20.5391872,3.0969344 L17.659264,6.651008 C17.48974,6.86784108 17.3143049,7.02159315 17.1329536,7.1122688 C17.2630535,7.15957784 17.3803387,7.22561238 17.4848128,7.3103744 C17.5892869,7.39513642 17.6888315,7.50650811 17.7834496,7.6444928 L20.7520768,11.648 L19.3505536,11.648 C19.1613175,11.648 19.0203781,11.6213891 18.9277312,11.5681664 C18.8350843,11.5149437 18.7572227,11.4370821 18.694144,11.3345792 L16.2754816,8.1767168 C16.2005756,8.07027147 16.1138437,7.99536662 16.0152832,7.952 C15.9167227,7.90863338 15.7747977,7.8869504 15.589504,7.8869504 L15.086848,7.8869504 L15.086848,11.648 L13.4960896,11.648 L13.4960896,3.0969344 L15.086848,3.0969344 L15.086848,6.680576 Z M24.578176,9.0578432 C24.1563371,9.0775553 23.8015246,9.11402213 23.513728,9.1672448 C23.2259314,9.22046747 22.9953033,9.28847319 22.8218368,9.371264 C22.6483703,9.45405481 22.524186,9.55064265 22.44928,9.6610304 C22.374374,9.77141815 22.3369216,9.89166015 22.3369216,10.02176 C22.3369216,10.2780173 22.412812,10.461337 22.5645952,10.5717248 C22.7163784,10.6821126 22.914482,10.7373056 23.158912,10.7373056 C23.4585359,10.7373056 23.7177461,10.6830981 23.9365504,10.5746816 C24.1553547,10.4662651 24.3692278,10.3016715 24.578176,10.080896 L24.578176,9.0578432 Z M21.2310784,6.4262912 C21.9288867,5.78761921 22.7686095,5.468288 23.750272,5.468288 C24.1050898,5.468288 24.4224498,5.52643782 24.7023616,5.6427392 C24.9822734,5.75904058 25.218815,5.92067737 25.4119936,6.1276544 C25.6051722,6.33463143 25.7520251,6.58201456 25.8525568,6.8698112 C25.9530885,7.15760784 26.0033536,7.47299669 26.0033536,7.8159872 L26.0033536,11.648 L25.3410304,11.648 C25.2030457,11.648 25.096602,11.6273026 25.021696,11.5859072 C24.94679,11.5445118 24.8876546,11.4607366 24.844288,11.3345792 L24.7141888,10.8969728 C24.5604344,11.0349575 24.4106247,11.1561851 24.2647552,11.2606592 C24.1188857,11.3651333 23.9671048,11.4528508 23.809408,11.5238144 C23.6517112,11.594778 23.4831753,11.6489854 23.3037952,11.6864384 C23.1244151,11.7238914 22.9263115,11.7426176 22.7094784,11.7426176 C22.4532211,11.7426176 22.2166795,11.7081219 21.9998464,11.6391296 C21.7830133,11.5701373 21.5957512,11.4666503 21.4380544,11.3286656 C21.2803576,11.1906809 21.1581444,11.0191882 21.0714112,10.8141824 C20.984678,10.6091766 20.941312,10.3706638 20.941312,10.0986368 C20.941312,9.94488243 20.9669373,9.79211596 21.0181888,9.6403328 C21.0694403,9.48854964 21.1532154,9.34366789 21.2695168,9.2056832 C21.3858182,9.06769851 21.5366135,8.93760061 21.7219072,8.8153856 C21.9072009,8.69317059 22.1348722,8.58672685 22.404928,8.4960512 C22.6749838,8.40537555 22.989387,8.33145629 23.3481472,8.2742912 C23.7069074,8.21712611 24.1169129,8.18263046 24.578176,8.1708032 L24.578176,7.8159872 C24.578176,7.40991797 24.4914441,7.10931298 24.3179776,6.9141632 C24.1445111,6.71901342 23.8941712,6.62144 23.5669504,6.62144 C23.3304052,6.62144 23.1342728,6.64903652 22.9785472,6.7042304 C22.8228216,6.75942428 22.6858246,6.82151646 22.567552,6.8905088 L22.2452608,7.0767872 L22.2452608,7.0767872 C22.1486715,7.13198108 22.0412422,7.1595776 21.9229696,7.1595776 C21.8204667,7.1595776 21.7337348,7.13296667 21.6627712,7.079744 C21.5918076,7.02652133 21.5346434,6.96442915 21.4912768,6.8934656 L21.2310784,6.4262912 Z M30.58048,9.0578432 C30.1586411,9.0775553 29.8038286,9.11402213 29.516032,9.1672448 C29.2282354,9.22046747 28.9976073,9.28847319 28.8241408,9.371264 C28.6506743,9.45405481 28.52649,9.55064265 28.451584,9.6610304 C28.376678,9.77141815 28.3392256,9.89166015 28.3392256,10.02176 C28.3392256,10.2780173 28.415116,10.461337 28.5668992,10.5717248 C28.7186824,10.6821126 28.916786,10.7373056 29.161216,10.7373056 C29.4608399,10.7373056 29.7200501,10.6830981 29.9388544,10.5746816 C30.1576587,10.4662651 30.3715318,10.3016715 30.58048,10.080896 L30.58048,9.0578432 Z M27.2333824,6.4262912 C27.9311907,5.78761921 28.7709135,5.468288 29.752576,5.468288 C30.1073938,5.468288 30.4247538,5.52643782 30.7046656,5.6427392 C30.9845774,5.75904058 31.221119,5.92067737 31.4142976,6.1276544 C31.6074762,6.33463143 31.7543291,6.58201456 31.8548608,6.8698112 C31.9553925,7.15760784 32.0056576,7.47299669 32.0056576,7.8159872 L32.0056576,11.648 L31.3433344,11.648 C31.2053497,11.648 31.098906,11.6273026 31.024,11.5859072 C30.949094,11.5445118 30.8899586,11.4607366 30.846592,11.3345792 L30.7164928,10.8969728 C30.5627384,11.0349575 30.4129287,11.1561851 30.2670592,11.2606592 C30.1211897,11.3651333 29.9694088,11.4528508 29.811712,11.5238144 C29.6540152,11.594778 29.4854793,11.6489854 29.3060992,11.6864384 C29.1267191,11.7238914 28.9286155,11.7426176 28.7117824,11.7426176 C28.4555251,11.7426176 28.2189835,11.7081219 28.0021504,11.6391296 C27.7853173,11.5701373 27.5980552,11.4666503 27.4403584,11.3286656 C27.2826616,11.1906809 27.1604484,11.0191882 27.0737152,10.8141824 C26.986982,10.6091766 26.943616,10.3706638 26.943616,10.0986368 C26.943616,9.94488243 26.9692413,9.79211596 27.0204928,9.6403328 C27.0717443,9.48854964 27.1555194,9.34366789 27.2718208,9.2056832 C27.3881222,9.06769851 27.5389175,8.93760061 27.7242112,8.8153856 C27.9095049,8.69317059 28.1371762,8.58672685 28.407232,8.4960512 C28.6772878,8.40537555 28.991691,8.33145629 29.3504512,8.2742912 C29.7092114,8.21712611 30.1192169,8.18263046 30.58048,8.1708032 L30.58048,7.8159872 C30.58048,7.40991797 30.4937481,7.10931298 30.3202816,6.9141632 C30.1468151,6.71901342 29.8964752,6.62144 29.5692544,6.62144 C29.3327092,6.62144 29.1365768,6.64903652 28.9808512,6.7042304 C28.8251256,6.75942428 28.6881286,6.82151646 28.569856,6.8905088 L28.2475648,7.0767872 L28.2475648,7.0767872 C28.1509755,7.13198108 28.0435462,7.1595776 27.9252736,7.1595776 C27.8227707,7.1595776 27.7360388,7.13296667 27.6650752,7.079744 C27.5941116,7.02652133 27.5369474,6.96442915 27.4935808,6.8934656 L27.2333824,6.4262912 Z M37.0795264,6.7633664 C37.0401022,6.82644512 36.9987074,6.87079667 36.9553408,6.8964224 C36.9119742,6.92204813 36.8567811,6.9348608 36.78976,6.9348608 C36.7187964,6.9348608 36.642906,6.915149 36.5620864,6.8757248 L36.3833644,6.7903062 C36.3507301,6.77497467 36.3166722,6.75909555 36.2811904,6.7426688 C36.1747451,6.69338855 36.0535175,6.649037 35.917504,6.6096128 C35.7814905,6.5701886 35.6208393,6.5504768 35.4355456,6.5504768 C35.147749,6.5504768 34.9220488,6.61158339 34.7584384,6.7337984 C34.594828,6.85601341 34.513024,7.01567901 34.513024,7.2128 C34.513024,7.34289985 34.5554044,7.45230036 34.6401664,7.5410048 C34.7249284,7.62970924 34.8372857,7.70757086 34.9772416,7.774592 C35.1171975,7.84161314 35.2758775,7.90173413 35.4532864,7.9549568 C35.6306953,8.00817947 35.8110583,8.06632928 35.9943808,8.129408 C36.1777033,8.19248672 36.3580663,8.2644348 36.5354752,8.3452544 C36.7128841,8.426074 36.8715641,8.52857538 37.01152,8.6527616 C37.1514759,8.77694782 37.2638332,8.92577193 37.3485952,9.0992384 C37.4333572,9.27270487 37.4757376,9.48164998 37.4757376,9.72608 C37.4757376,10.0178191 37.4235013,10.2868852 37.3190272,10.5332864 C37.2145531,10.7796876 37.0598154,10.9925751 36.8548096,11.1719552 C36.6498038,11.3513353 36.3965071,11.4912891 36.094912,11.5918208 C35.7933169,11.6923525 35.4454036,11.7426176 35.0511616,11.7426176 C34.8422134,11.7426176 34.6381962,11.7238914 34.439104,11.6864384 C34.2400118,11.6489854 34.0488073,11.5967491 33.8654848,11.529728 C33.6821623,11.4627069 33.5126408,11.3838597 33.3569152,11.293184 C33.2011896,11.2025083 33.0641926,11.1039493 32.94592,10.997504 L33.2829952,10.4416256 C33.3263618,10.3746045 33.3776125,10.3233538 33.4367488,10.287872 C33.4958851,10.2523902 33.5707899,10.2346496 33.6614656,10.2346496 C33.7521413,10.2346496 33.8378876,10.2602749 33.9187072,10.3115264 C33.9995268,10.3627779 34.0931579,10.4179709 34.1996032,10.4771072 C34.3060485,10.5362435 34.4312185,10.5914365 34.5751168,10.642688 C34.7190151,10.6939395 34.9013493,10.7195648 35.1221248,10.7195648 C35.2955913,10.7195648 35.4444154,10.6988674 35.5686016,10.657472 C35.6927878,10.6160766 35.7952892,10.5618691 35.8761088,10.494848 C35.9569284,10.4278269 36.0160638,10.3499652 36.0535168,10.2612608 C36.0909698,10.1725564 36.109696,10.0808965 36.109696,9.9862784 C36.109696,9.84435129 36.0673156,9.72805165 35.9825536,9.637376 C35.8977916,9.54670035 35.7854343,9.46785314 35.6454784,9.400832 C35.5055225,9.33381086 35.3458569,9.27368987 35.1664768,9.2204672 C34.9870967,9.16724453 34.8037769,9.10909472 34.616512,9.046016 C34.4292471,8.98293728 34.2459273,8.90901802 34.0665472,8.824256 C33.8871671,8.73949398 33.7275015,8.63206465 33.5875456,8.5019648 C33.4475897,8.37186495 33.3352324,8.21219935 33.2504704,8.0229632 C33.1657084,7.83372705 33.123328,7.60507014 33.123328,7.3369856 C33.123328,7.08861316 33.1726075,6.85207152 33.271168,6.6273536 C33.3697285,6.40263568 33.5146102,6.20650324 33.7058176,6.0389504 C33.897025,5.87139756 34.1355378,5.7373573 34.4213632,5.6368256 C34.7071886,5.5362939 35.0373613,5.4860288 35.4118912,5.4860288 C35.8297877,5.4860288 36.2102255,5.55502011 36.553216,5.6930048 C36.8962065,5.83098949 37.1820277,6.01233808 37.410688,6.237056 L37.0795264,6.7633664 Z M43.8032896,5.5806464 L43.8032896,11.648 L42.910336,11.648 C42.7171574,11.648 42.5949443,11.5592969 42.5436928,11.381888 L42.4431616,10.8969728 C42.1947892,11.1492877 41.9207951,11.3533048 41.6211712,11.5090304 C41.3215473,11.664756 40.968706,11.7426176 40.5626368,11.7426176 C40.2314735,11.7426176 39.9387533,11.686439 39.6844672,11.57408 C39.4301811,11.461721 39.2163081,11.303041 39.0428416,11.0980352 C38.8693751,10.8930294 38.7382916,10.6495886 38.6495872,10.3677056 C38.5608828,10.0858226 38.5165312,9.7753617 38.5165312,9.4363136 L38.5165312,5.5806464 L39.9771904,5.5806464 L39.9771904,9.4363136 C39.9771904,9.80690105 40.0629367,10.0937078 40.234432,10.2967424 C40.4059273,10.499777 40.6631663,10.6012928 41.0061568,10.6012928 C41.2584717,10.6012928 41.4950133,10.5451142 41.7157888,10.4327552 C41.9365643,10.3203962 42.1455094,10.1656586 42.3426304,9.9685376 L42.3426304,5.5806464 L43.8032896,5.5806464 Z M46.724608,2.8603904 L46.724608,11.648 L45.2639488,11.648 L45.2639488,2.8603904 L46.724608,2.8603904 Z M49.6636672,2.8603904 L49.6636672,11.648 L48.203008,11.648 L48.203008,2.8603904 L49.6636672,2.8603904 Z M54.3294976,9.0578432 C53.9076587,9.0775553 53.5528462,9.11402213 53.2650496,9.1672448 C52.977253,9.22046747 52.7466249,9.28847319 52.5731584,9.371264 C52.3996919,9.45405481 52.2755076,9.55064265 52.2006016,9.6610304 C52.1256956,9.77141815 52.0882432,9.89166015 52.0882432,10.02176 C52.0882432,10.2780173 52.1641336,10.461337 52.3159168,10.5717248 C52.4677,10.6821126 52.6658036,10.7373056 52.9102336,10.7373056 C53.2098575,10.7373056 53.4690677,10.6830981 53.687872,10.5746816 C53.9066763,10.4662651 54.1205494,10.3016715 54.3294976,10.080896 L54.3294976,9.0578432 Z M50.9824,6.4262912 C51.6802083,5.78761921 52.5199311,5.468288 53.5015936,5.468288 C53.8564114,5.468288 54.1737714,5.52643782 54.4536832,5.6427392 C54.733595,5.75904058 54.9701366,5.92067737 55.1633152,6.1276544 C55.3564938,6.33463143 55.5033467,6.58201456 55.6038784,6.8698112 C55.7044101,7.15760784 55.7546752,7.47299669 55.7546752,7.8159872 L55.7546752,11.648 L55.092352,11.648 C54.9543673,11.648 54.8479236,11.6273026 54.7730176,11.5859072 C54.6981116,11.5445118 54.6389762,11.4607366 54.5956096,11.3345792 L54.4655104,10.8969728 C54.311756,11.0349575 54.1619463,11.1561851 54.0160768,11.2606592 C53.8702073,11.3651333 53.7184264,11.4528508 53.5607296,11.5238144 C53.4030328,11.594778 53.2344969,11.6489854 53.0551168,11.6864384 C52.8757367,11.7238914 52.6776331,11.7426176 52.4608,11.7426176 C52.2045427,11.7426176 51.9680011,11.7081219 51.751168,11.6391296 C51.5343349,11.5701373 51.3470728,11.4666503 51.189376,11.3286656 C51.0316792,11.1906809 50.909466,11.0191882 50.8227328,10.8141824 C50.7359996,10.6091766 50.6926336,10.3706638 50.6926336,10.0986368 C50.6926336,9.94488243 50.7182589,9.79211596 50.7695104,9.6403328 C50.8207619,9.48854964 50.904537,9.34366789 51.0208384,9.2056832 C51.1371398,9.06769851 51.2879351,8.93760061 51.4732288,8.8153856 C51.6585225,8.69317059 51.8861938,8.58672685 52.1562496,8.4960512 C52.4263054,8.40537555 52.7407086,8.33145629 53.0994688,8.2742912 C53.458229,8.21712611 53.8682345,8.18263046 54.3294976,8.1708032 L54.3294976,7.8159872 C54.3294976,7.40991797 54.2427657,7.10931298 54.0692992,6.9141632 C53.8958327,6.71901342 53.6454928,6.62144 53.318272,6.62144 C53.0817268,6.62144 52.8855944,6.64903652 52.7298688,6.7042304 C52.5741432,6.75942428 52.4371462,6.82151646 52.3188736,6.8905088 L51.9965824,7.0767872 L51.9965824,7.0767872 C51.8999931,7.13198108 51.7925638,7.1595776 51.6742912,7.1595776 C51.5717883,7.1595776 51.4850564,7.13296667 51.4140928,7.079744 C51.3431292,7.02652133 51.285965,6.96442915 51.2425984,6.8934656 L50.9824,6.4262912 Z M56.9137408,10.8437504 C56.9137408,10.7215354 56.9364094,10.6052358 56.9817472,10.494848 C57.027085,10.3844602 57.0891772,10.2898436 57.1680256,10.2109952 C57.246874,10.1321468 57.3414906,10.069069 57.4518784,10.02176 C57.5622662,9.97445096 57.680537,9.9507968 57.8066944,9.9507968 C57.9328518,9.9507968 58.0501371,9.97445096 58.1585536,10.02176 C58.2669701,10.069069 58.3615868,10.1321468 58.4424064,10.2109952 C58.523226,10.2898436 58.5872894,10.3844602 58.6345984,10.494848 C58.6819074,10.6052358 58.7055616,10.7215354 58.7055616,10.8437504 C58.7055616,10.9699078 58.6819074,11.0871931 58.6345984,11.1956096 C58.5872894,11.3040261 58.523226,11.3976572 58.4424064,11.4765056 C58.3615868,11.555354 58.2669701,11.6174462 58.1585536,11.662784 C58.0501371,11.7081218 57.9328518,11.7307904 57.8066944,11.7307904 C57.680537,11.7307904 57.5622662,11.7081218 57.4518784,11.662784 C57.3414906,11.6174462 57.246874,11.555354 57.1680256,11.4765056 C57.0891772,11.3976572 57.027085,11.3040261 56.9817472,11.1956096 C56.9364094,11.0871931 56.9137408,10.9699078 56.9137408,10.8437504 Z M63.1407616,9.0578432 C62.7189227,9.0775553 62.3641102,9.11402213 62.0763136,9.1672448 C61.788517,9.22046747 61.5578889,9.28847319 61.3844224,9.371264 C61.2109559,9.45405481 61.0867716,9.55064265 61.0118656,9.6610304 C60.9369596,9.77141815 60.8995072,9.89166015 60.8995072,10.02176 C60.8995072,10.2780173 60.9753976,10.461337 61.1271808,10.5717248 C61.278964,10.6821126 61.4770676,10.7373056 61.7214976,10.7373056 C62.0211215,10.7373056 62.2803317,10.6830981 62.499136,10.5746816 C62.7179403,10.4662651 62.9318134,10.3016715 63.1407616,10.080896 L63.1407616,9.0578432 Z M59.793664,6.4262912 C60.4914723,5.78761921 61.3311951,5.468288 62.3128576,5.468288 C62.6676754,5.468288 62.9850354,5.52643782 63.2649472,5.6427392 C63.544859,5.75904058 63.7814006,5.92067737 63.9745792,6.1276544 C64.1677578,6.33463143 64.3146107,6.58201456 64.4151424,6.8698112 C64.5156741,7.15760784 64.5659392,7.47299669 64.5659392,7.8159872 L64.5659392,11.648 L63.903616,11.648 C63.7656313,11.648 63.6591876,11.6273026 63.5842816,11.5859072 C63.5093756,11.5445118 63.4502402,11.4607366 63.4068736,11.3345792 L63.2767744,10.8969728 C63.12302,11.0349575 62.9732103,11.1561851 62.8273408,11.2606592 C62.6814713,11.3651333 62.5296904,11.4528508 62.3719936,11.5238144 C62.2142968,11.594778 62.0457609,11.6489854 61.8663808,11.6864384 C61.6870007,11.7238914 61.4888971,11.7426176 61.272064,11.7426176 C61.0158067,11.7426176 60.7792651,11.7081219 60.562432,11.6391296 C60.3455989,11.5701373 60.1583368,11.4666503 60.00064,11.3286656 C59.8429432,11.1906809 59.72073,11.0191882 59.6339968,10.8141824 C59.5472636,10.6091766 59.5038976,10.3706638 59.5038976,10.0986368 C59.5038976,9.94488243 59.5295229,9.79211596 59.5807744,9.6403328 C59.6320259,9.48854964 59.715801,9.34366789 59.8321024,9.2056832 C59.9484038,9.06769851 60.0991991,8.93760061 60.2844928,8.8153856 C60.4697865,8.69317059 60.6974578,8.58672685 60.9675136,8.4960512 C61.2375694,8.40537555 61.5519726,8.33145629 61.9107328,8.2742912 C62.269493,8.21712611 62.6794985,8.18263046 63.1407616,8.1708032 L63.1407616,7.8159872 C63.1407616,7.40991797 63.0540297,7.10931298 62.8805632,6.9141632 C62.7070967,6.71901342 62.4567568,6.62144 62.129536,6.62144 C61.8929908,6.62144 61.6968584,6.64903652 61.5411328,6.7042304 C61.3854072,6.75942428 61.2484102,6.82151646 61.1301376,6.8905088 L60.8078464,7.0767872 L60.8078464,7.0767872 C60.7112571,7.13198108 60.6038278,7.1595776 60.4855552,7.1595776 C60.3830523,7.1595776 60.2963204,7.13296667 60.2253568,7.079744 C60.1543932,7.02652133 60.097229,6.96442915 60.0538624,6.8934656 L59.793664,6.4262912 Z M67.3985536,10.0749824 C67.5641352,10.2760458 67.7444982,10.4179708 67.939648,10.5007616 C68.1347978,10.5835524 68.3466997,10.6249472 68.57536,10.6249472 C68.7961355,10.6249472 68.9952247,10.5835524 69.1726336,10.5007616 C69.3500425,10.4179708 69.5008378,10.2918152 69.625024,10.1222912 C69.7492102,9.95276715 69.8448125,9.73889409 69.9118336,9.4806656 C69.9788547,9.22243711 70.0123648,8.91788975 70.0123648,8.5670144 C70.0123648,8.21219663 69.9837827,7.91159163 69.9266176,7.6651904 C69.8694525,7.41878917 69.7876485,7.21871437 69.6812032,7.06496 C69.5747579,6.91120563 69.4456456,6.79884835 69.2938624,6.7278848 C69.1420792,6.65692125 68.969601,6.62144 68.7764224,6.62144 C68.4728561,6.62144 68.2146315,6.68550336 68.0017408,6.813632 C67.7888501,6.94176064 67.5877897,7.12212364 67.3985536,7.3547264 L67.3985536,10.0749824 Z M67.3216768,6.4085504 C67.5700492,6.1286386 67.851928,5.90195287 68.1673216,5.7284864 C68.4827152,5.55501993 68.8532971,5.468288 69.2790784,5.468288 C69.6102417,5.468288 69.9128178,5.53727931 70.186816,5.675264 C70.4608142,5.81324869 70.6973558,6.01332349 70.896448,6.2754944 C71.0955402,6.53766531 71.2492923,6.86093888 71.3577088,7.2453248 C71.4661253,7.62971072 71.5203328,8.07026952 71.5203328,8.5670144 C71.5203328,9.02039267 71.4592262,9.44025407 71.3370112,9.8266112 C71.2147962,10.2129683 71.0403467,10.548069 70.8136576,10.8319232 C70.5869685,11.1157774 70.3129744,11.3375352 69.9916672,11.4972032 C69.67036,11.6568712 69.3106196,11.736704 68.9124352,11.736704 C68.5733871,11.736704 68.2836236,11.6844677 68.043136,11.5799936 C67.8026484,11.4755195 67.5877897,11.3306377 67.3985536,11.145344 L67.3985536,13.629056 L65.9378944,13.629056 L65.9378944,5.5806464 L66.830848,5.5806464 C67.0200841,5.5806464 67.1442685,5.66934951 67.2034048,5.8467584 L67.3216768,6.4085504 Z M74.1164032,10.0749824 C74.2819848,10.2760458 74.4623478,10.4179708 74.6574976,10.5007616 C74.8526474,10.5835524 75.0645493,10.6249472 75.2932096,10.6249472 C75.5139851,10.6249472 75.7130743,10.5835524 75.8904832,10.5007616 C76.0678921,10.4179708 76.2186874,10.2918152 76.3428736,10.1222912 C76.4670598,9.95276715 76.5626621,9.73889409 76.6296832,9.4806656 C76.6967043,9.22243711 76.7302144,8.91788975 76.7302144,8.5670144 C76.7302144,8.21219663 76.7016323,7.91159163 76.6444672,7.6651904 C76.5873021,7.41878917 76.5054981,7.21871437 76.3990528,7.06496 C76.2926075,6.91120563 76.1634952,6.79884835 76.011712,6.7278848 C75.8599288,6.65692125 75.6874506,6.62144 75.494272,6.62144 C75.1907057,6.62144 74.9324811,6.68550336 74.7195904,6.813632 C74.5066997,6.94176064 74.3056393,7.12212364 74.1164032,7.3547264 L74.1164032,10.0749824 Z M74.0395264,6.4085504 C74.2878988,6.1286386 74.5697776,5.90195287 74.8851712,5.7284864 C75.2005648,5.55501993 75.5711467,5.468288 75.996928,5.468288 C76.3280913,5.468288 76.6306674,5.53727931 76.9046656,5.675264 C77.1786638,5.81324869 77.4152054,6.01332349 77.6142976,6.2754944 C77.8133898,6.53766531 77.9671419,6.86093888 78.0755584,7.2453248 C78.1839749,7.62971072 78.2381824,8.07026952 78.2381824,8.5670144 C78.2381824,9.02039267 78.1770758,9.44025407 78.0548608,9.8266112 C77.9326458,10.2129683 77.7581963,10.548069 77.5315072,10.8319232 C77.3048181,11.1157774 77.030824,11.3375352 76.7095168,11.4972032 C76.3882096,11.6568712 76.0284692,11.736704 75.6302848,11.736704 C75.2912367,11.736704 75.0014732,11.6844677 74.7609856,11.5799936 C74.520498,11.4755195 74.3056393,11.3306377 74.1164032,11.145344 L74.1164032,13.629056 L72.655744,13.629056 L72.655744,5.5806464 L73.5486976,5.5806464 C73.7379337,5.5806464 73.8621181,5.66934951 73.9212544,5.8467584 L74.0395264,6.4085504 Z" id="Kaasulla.app" fill-rule="nonzero"></path>
                <path d="M4.83889405,1.77635684e-15 C7.51079573,1.77635684e-15 9.6768,2.1943248 9.6768,4.90116162 C9.6768,4.95619772 9.67590457,5.01102196 9.67412767,5.06562018 C9.67504582,5.06864392 9.67436209,5.0692834 9.67367851,5.06992289 C9.61320939,6.8821051 8.58209131,8.44420147 7.09063844,9.24020377 C6.38632678,11.9901445 7.46542436,14.1568 7.07510832,14.1568 C5.94762782,14.1568 0.221920057,11.0010398 0.00625699475,5.58271411 L-6.41608692e-13,5.2676145 L-6.41596469e-13,5.06800446 C0.000226994969,5.05000165 0.000734027299,5.03202683 0.00151824548,5.01408169 L0.000988107361,4.90116162 C0.000988107361,2.1943248 2.16699238,1.77635684e-15 4.83889405,1.77635684e-15 Z M4.83889405,3.26744108 C3.94826016,3.26744108 3.22625874,3.99888268 3.22625874,4.90116162 C3.22625874,5.80344055 3.94826016,6.53488215 4.83889405,6.53488215 C5.72952795,6.53488215 6.45152937,5.80344055 6.45152937,4.90116162 C6.45152937,3.99888268 5.72952795,3.26744108 4.83889405,3.26744108 Z" id="Combined-Shape" transform="translate(4.838400, 7.078400) rotate(-360.000000) translate(-4.838400, -7.078400) "></path>
            </g>
        </g>
    </g>
</svg>