<svg xmlns="http://www.w3.org/2000/svg" viewBox="0 0 175 32">
  <g fill="#0039AD" fill-rule="evenodd">
    <path fill-rule="nonzero" d="M33.676 14.912h.8316c.3344017 0 .6115989-.0461995.8316-.1386.2200011-.0924005.4091992-.239799.5676-.4422l5.2668-6.666c.2200011-.28160141.4509988-.47739945.693-.5874.2420012-.11000055.5477982-.165.9174-.165h3.0624L39.418 14.846c-.3784019.4840024-.769998.827199-1.1748 1.0296.2904015.1056005.5521988.2529991.7854.4422s.4553989.4377985.6666.7458L46.3216 26h-3.1284c-.4224021 0-.736999-.0593994-.9438-.1782s-.3805993-.2925989-.5214-.5214l-5.3988-7.0488c-.1672008-.2376012-.3607989-.4047995-.5808-.5016-.2200011-.0968005-.5367979-.1452-.9504-.1452h-1.122V26h-3.5508V6.9128h3.5508v7.9992zm21.186 5.3064c-.9416047.0440002-1.7335968.1253994-2.376.2442s-1.1571981.2705991-1.5444.4554c-.3872019.1848009-.6643992.4003988-.8316.6468-.1672008.2464012-.2508.5147985-.2508.8052 0 .5720029.1693983.9811988.5082 1.2276s.7809973.3696 1.3266.3696c.6688033 0 1.2473976-.1209988 1.7358-.363.4884024-.2420012.9657977-.6093975 1.4322-1.1022v-2.2836zm-7.4712-5.874c1.5576078-1.4256071 3.431989-2.1384 5.6232-2.1384.792004 0 1.5003969.1297987 2.1252.3894.6248031.2596013 1.1527978.6203977 1.584 1.0824s.7589989 1.0141968.9834 1.6566c.2244011.6424032.3366 1.3463962.3366 2.112V26h-1.4784c-.3080015 0-.5455992-.0461995-.7128-.1386-.1672008-.0924005-.2991995-.2793986-.396-.561l-.2904-.9768c-.3432017.3080015-.6775984.5785988-1.0032.8118-.3256016.2332012-.6643982.4289992-1.0164.5874-.3520018.1584008-.728198.2793996-1.1286.363-.400402.0836004-.8425976.1254-1.3266.1254-.5720029 0-1.0999976-.0769992-1.584-.231-.4840024-.1540008-.9019982-.3849985-1.254-.693-.3520018-.3080015-.624799-.6907977-.8184-1.1484-.193601-.4576023-.2904-.989997-.2904-1.5972 0-.3432017.0571994-.6841983.1716-1.023.1144006-.3388017.3013987-.6621985.561-.9702.2596013-.3080015.5961979-.5983986 1.0098-.8712.4136021-.2728014.921797-.510399 1.5246-.7128.602803-.202401 1.304596-.3673994 2.1054-.495.800804-.1276006 1.7159949-.2045999 2.7456-.231v-.792c0-.9064045-.1935981-1.5773978-.5808-2.013-.3872019-.4356022-.9459963-.6534-1.6764-.6534-.5280026 0-.9657983.0615994-1.3134.1848-.3476017.1232006-.6533987.2617992-.9174.4158l-.7194.4158c-.2156011.1232006-.4553987.1848-.7194.1848-.2288011 0-.4223992-.0593994-.5808-.1782s-.2859995-.2573992-.3828-.4158l-.5808-1.0428zm20.8692 5.874c-.9416047.0440002-1.7335968.1253994-2.376.2442s-1.1571981.2705991-1.5444.4554c-.3872019.1848009-.6643992.4003988-.8316.6468-.1672008.2464012-.2508.5147985-.2508.8052 0 .5720029.1693983.9811988.5082 1.2276s.7809973.3696 1.3266.3696c.6688033 0 1.2473976-.1209988 1.7358-.363.4884024-.2420012.9657977-.6093975 1.4322-1.1022v-2.2836zm-7.4712-5.874c1.5576078-1.4256071 3.431989-2.1384 5.6232-2.1384.792004 0 1.5003969.1297987 2.1252.3894.6248031.2596013 1.1527978.6203977 1.584 1.0824s.7589989 1.0141968.9834 1.6566c.2244011.6424032.3366 1.3463962.3366 2.112V26h-1.4784c-.3080015 0-.5455992-.0461995-.7128-.1386-.1672008-.0924005-.2991995-.2793986-.396-.561l-.2904-.9768c-.3432017.3080015-.6775984.5785988-1.0032.8118-.3256016.2332012-.6643982.4289992-1.0164.5874-.3520018.1584008-.728198.2793996-1.1286.363-.400402.0836004-.8425976.1254-1.3266.1254-.5720029 0-1.0999976-.0769992-1.584-.231-.4840024-.1540008-.9019982-.3849985-1.254-.693-.3520018-.3080015-.624799-.6907977-.8184-1.1484-.193601-.4576023-.2904-.989997-.2904-1.5972 0-.3432017.0571994-.6841983.1716-1.023.1144006-.3388017.3013987-.6621985.561-.9702.2596013-.3080015.5961979-.5983986 1.0098-.8712.4136021-.2728014.921797-.510399 1.5246-.7128.602803-.202401 1.304596-.3673994 2.1054-.495.800804-.1276006 1.7159949-.2045999 2.7456-.231v-.792c0-.9064045-.1935981-1.5773978-.5808-2.013-.3872019-.4356022-.9459963-.6534-1.6764-.6534-.5280026 0-.9657983.0615994-1.3134.1848-.3476017.1232006-.6533987.2617992-.9174.4158l-.7194.4158c-.2156011.1232006-.4553987.1848-.7194.1848-.2288011 0-.4223992-.0593994-.5808-.1782s-.2859995-.2573992-.3828-.4158l-.5808-1.0428zm21.978.7524c-.0880004.1408007-.1803995.2397997-.2772.297-.0968005.0572003-.2199993.0858-.3696.0858-.1584008 0-.3277991-.0439996-.5082-.132l-.398933-.1906665c-.0728443-.0342222-.1488666-.0696667-.228067-.1063335-.2376012-.1100005-.5081985-.2089996-.8118-.297-.3036015-.0880004-.6621979-.132-1.0758-.132-.6424032 0-1.1461982.1363986-1.5114.4092-.3652018.2728014-.5478.6291978-.5478 1.0692 0 .2904015.0945991.534599.2838.7326.1892009.198001.4399984.3717993.7524.5214.3124016.1496007.666598.2837994 1.0626.4026.396002.1188006.798598.2485993 1.2078.3894.409202.1408007.811798.3013991 1.2078.4818.396002.1804009.7501984.4091986 1.0626.6864.3124016.2772014.5631991.6093981.7524.9966s.2838.8535973.2838 1.3992c0 .6512033-.1165988 1.2517973-.3498 1.8018-.2332012.5500027-.5785977 1.025198-1.0362 1.4256-.4576023.400402-1.0229966.7127989-1.6962.9372-.6732034.2244011-1.4497956.3366-2.3298.3366-.4664023 0-.9217978-.0417996-1.3662-.1254-.4444022-.0836004-.871198-.2001993-1.2804-.3498-.409202-.1496007-.7875983-.325599-1.1352-.528s-.6533987-.4223988-.9174-.66l.7524-1.2408c.0968005-.1496007.2111993-.2639996.3432-.3432s.299199-.1188.5016-.1188c.202401 0 .3937991.0571994.5742.1716.1804009.1144006.3893988.2375993.627.3696.2376012.1320007.5169984.2551994.8382.3696.3212016.1144006.7281975.1716 1.221.1716.3872019 0 .7193986-.0461995.9966-.1386.2772014-.0924005.5059991-.2133993.6864-.363.1804009-.1496007.3123996-.323399.396-.5214.0836004-.198001.1254-.4025989.1254-.6138 0-.3168016-.0945991-.576399-.2838-.7788-.1892009-.202401-.4399984-.3783993-.7524-.528-.3124016-.1496007-.668798-.2837994-1.0692-.4026-.400402-.1188006-.8095979-.2485993-1.2276-.3894-.4180021-.1408007-.827198-.3057991-1.2276-.495-.400402-.1892009-.7567984-.4289985-1.0692-.7194-.3124016-.2904015-.5631991-.6467979-.7524-1.0692-.1892009-.4224021-.2838-.932797-.2838-1.5312 0-.5544028.1099989-1.0823975.33-1.584.2200011-.5016025.5433979-.9393981.9702-1.3134.4268021-.3740019.9591968-.6731989 1.5972-.8976.6380032-.2244011 1.3749958-.3366 2.211-.3366.9328047 0 1.7819962.1539985 2.5476.462.7656038.3080015 1.4035974.7127975 1.914 1.2144l-.7392 1.1748zm15.0084-2.64V26H95.782c-.4312022 0-.7039994-.197998-.8184-.594l-.2244-1.0824c-.5544028.5632028-1.1659967 1.0185983-1.8348 1.3662s-1.4563955.5214-2.3628.5214c-.7392037 0-1.3925972-.1253987-1.9602-.3762s-1.0449981-.6049977-1.4322-1.0626-.679799-1.0009969-.8778-1.6302c-.198001-.6292031-.297-1.3221962-.297-2.079v-8.6064h3.2604v8.6064c0 .8272041.1913981 1.4673977.5742 1.9206.3828019.4532023.9569962.6798 1.7226.6798.5632028 0 1.0911975-.1253987 1.584-.3762.4928025-.2508013.9591978-.5961978 1.3992-1.0362v-9.7944h3.2604zm6.5208-6.072V26h-3.2604V6.3848h3.2604zm6.5604 0V26h-3.2604V6.3848h3.2604zm10.4148 13.8336c-.941605.0440002-1.733597.1253994-2.376.2442-.642403.1188006-1.157198.2705991-1.5444.4554-.387202.1848009-.664399.4003988-.8316.6468-.167201.2464012-.2508.5147985-.2508.8052 0 .5720029.169398.9811988.5082 1.2276s.780997.3696 1.3266.3696c.668803 0 1.247398-.1209988 1.7358-.363.488402-.2420012.965798-.6093975 1.4322-1.1022v-2.2836zm-7.4712-5.874c1.557608-1.4256071 3.431989-2.1384 5.6232-2.1384.792004 0 1.500397.1297987 2.1252.3894.624803.2596013 1.152798.6203977 1.584 1.0824.431202.4620023.758999 1.0141968.9834 1.6566.224401.6424032.3366 1.3463962.3366 2.112V26h-1.4784c-.308002 0-.545599-.0461995-.7128-.1386-.167201-.0924005-.2992-.2793986-.396-.561l-.2904-.9768c-.343202.3080015-.677598.5785988-1.0032.8118-.325602.2332012-.664398.4289992-1.0164.5874-.352002.1584008-.728198.2793996-1.1286.363-.400402.0836004-.842598.1254-1.3266.1254-.572003 0-1.099998-.0769992-1.584-.231-.484002-.1540008-.901998-.3849985-1.254-.693-.352002-.3080015-.624799-.6907977-.8184-1.1484-.193601-.4576023-.2904-.989997-.2904-1.5972 0-.3432017.057199-.6841983.1716-1.023.114401-.3388017.301399-.6621985.561-.9702.259601-.3080015.596198-.5983986 1.0098-.8712.413602-.2728014.921797-.510399 1.5246-.7128.602803-.202401 1.304596-.3673994 2.1054-.495.800804-.1276006 1.715995-.2045999 2.7456-.231v-.792c0-.9064045-.193598-1.5773978-.5808-2.013-.387202-.4356022-.945996-.6534-1.6764-.6534-.528003 0-.965798.0615994-1.3134.1848-.347602.1232006-.653399.2617992-.9174.4158l-.7194.4158c-.215601.1232006-.455399.1848-.7194.1848-.228801 0-.422399-.0593994-.5808-.1782-.158401-.1188006-.286-.2573992-.3828-.4158l-.5808-1.0428zm13.2396 9.8604c0-.2728014.050599-.5323988.1518-.7788.101201-.2464012.239799-.4575991.4158-.6336.176001-.1760009.387199-.3167995.6336-.4224.246401-.1056005.510399-.1584.792-.1584s.543399.0527995.7854.1584c.242001.1056005.453199.2463991.6336.4224.180401.1760009.323399.3871988.429.6336.105601.2464012.1584.5059986.1584.7788 0 .2816014-.052799.5433988-.1584.7854-.105601.2420012-.248599.4509991-.429.627-.180401.1760009-.391599.3145995-.6336.4158-.242001.1012005-.503799.1518-.7854.1518s-.545599-.0505995-.792-.1518c-.246401-.1012005-.457599-.2397991-.6336-.4158-.176001-.1760009-.314599-.3849988-.4158-.627-.101201-.2420012-.1518-.5037986-.1518-.7854zm13.8996-3.9864c-.941605.0440002-1.733597.1253994-2.376.2442-.642403.1188006-1.157198.2705991-1.5444.4554-.387202.1848009-.664399.4003988-.8316.6468-.167201.2464012-.2508.5147985-.2508.8052 0 .5720029.169398.9811988.5082 1.2276s.780997.3696 1.3266.3696c.668803 0 1.247398-.1209988 1.7358-.363.488402-.2420012.965798-.6093975 1.4322-1.1022v-2.2836zm-7.4712-5.874c1.557608-1.4256071 3.431989-2.1384 5.6232-2.1384.792004 0 1.500397.1297987 2.1252.3894.624803.2596013 1.152798.6203977 1.584 1.0824.431202.4620023.758999 1.0141968.9834 1.6566.224401.6424032.3366 1.3463962.3366 2.112V26h-1.4784c-.308002 0-.545599-.0461995-.7128-.1386-.167201-.0924005-.2992-.2793986-.396-.561l-.2904-.9768c-.343202.3080015-.677598.5785988-1.0032.8118-.325602.2332012-.664398.4289992-1.0164.5874-.352002.1584008-.728198.2793996-1.1286.363-.400402.0836004-.842598.1254-1.3266.1254-.572003 0-1.099998-.0769992-1.584-.231-.484002-.1540008-.901998-.3849985-1.254-.693-.352002-.3080015-.624799-.6907977-.8184-1.1484-.193601-.4576023-.2904-.989997-.2904-1.5972 0-.3432017.057199-.6841983.1716-1.023.114401-.3388017.301399-.6621985.561-.9702.259601-.3080015.596198-.5983986 1.0098-.8712.413602-.2728014.921797-.510399 1.5246-.7128.602803-.202401 1.304596-.3673994 2.1054-.495.800804-.1276006 1.715995-.2045999 2.7456-.231v-.792c0-.9064045-.193598-1.5773978-.5808-2.013-.387202-.4356022-.945996-.6534-1.6764-.6534-.528003 0-.965798.0615994-1.3134.1848-.347602.1232006-.653399.2617992-.9174.4158l-.7194.4158c-.215601.1232006-.455399.1848-.7194.1848-.228801 0-.422399-.0593994-.5808-.1782-.158401-.1188006-.286-.2573992-.3828-.4158l-.5808-1.0428zm16.9752 8.1444c.369602.4488022.772198.7655991 1.2078.9504.435602.1848009.908597.2772 1.419.2772.492802 0 .937198-.0923991 1.3332-.2772.396002-.1848009.732599-.4663981 1.0098-.8448.277201-.3784019.490599-.8557971.6402-1.4322.149601-.5764029.2244-1.2561961.2244-2.0394 0-.792004-.063799-1.4629973-.1914-2.013-.127601-.5500027-.310199-.9965983-.5478-1.3398-.237601-.3432017-.525798-.5939992-.8646-.7524-.338802-.1584008-.723798-.2376-1.155-.2376-.677603 0-1.253998.1429986-1.7292.429-.475202.2860014-.923998.6885974-1.3464 1.2078v6.072zm-.1716-8.184c.554403-.6248031 1.183596-1.1307981 1.8876-1.518.704004-.3872019 1.531195-.5808 2.4816-.5808.739204 0 1.414597.1539985 2.0262.462.611603.3080015 1.139598.7545971 1.584 1.3398.444402.5852029.787599 1.3067957 1.0296 2.1648.242001.8580043.363 1.8413945.363 2.9502 0 1.0120051-.136399 1.9491957-.4092 2.8116-.272801.8624043-.662197 1.6103968-1.1682 2.244-.506003.6336032-1.117596 1.1285982-1.8348 1.485s-1.520196.5346-2.409.5346c-.756804 0-1.403597-.1165988-1.9404-.3498-.536803-.2332012-1.016398-.5565979-1.4388-.9702v5.544h-3.2604V12.4568h1.9932c.422402 0 .699599.197998.8316.594l.264 1.254zm15.1668 8.184c.369602.4488022.772198.7655991 1.2078.9504.435602.1848009.908597.2772 1.419.2772.492802 0 .937198-.0923991 1.3332-.2772.396002-.1848009.732599-.4663981 1.0098-.8448.277201-.3784019.490599-.8557971.6402-1.4322.149601-.5764029.2244-1.2561961.2244-2.0394 0-.792004-.063799-1.4629973-.1914-2.013-.127601-.5500027-.310199-.9965983-.5478-1.3398-.237601-.3432017-.525798-.5939992-.8646-.7524-.338802-.1584008-.723798-.2376-1.155-.2376-.677603 0-1.253998.1429986-1.7292.429-.475202.2860014-.923998.6885974-1.3464 1.2078v6.072zm-.1716-8.184c.554403-.6248031 1.183596-1.1307981 1.8876-1.518.704004-.3872019 1.531195-.5808 2.4816-.5808.739204 0 1.414597.1539985 2.0262.462.611603.3080015 1.139598.7545971 1.584 1.3398.444402.5852029.787599 1.3067957 1.0296 2.1648.242001.8580043.363 1.8413945.363 2.9502 0 1.0120051-.136399 1.9491957-.4092 2.8116-.272801.8624043-.662197 1.6103968-1.1682 2.244-.506003.6336032-1.117596 1.1285982-1.8348 1.485s-1.520196.5346-2.409.5346c-.756804 0-1.403597-.1165988-1.9404-.3498-.536803-.2332012-1.016398-.5565979-1.4388-.9702v5.544h-3.2604V12.4568h1.9932c.422402 0 .699599.197998.8316.594l.264 1.254z"/>
    <path d="M10.8011028 0C16.765169 0 21.6 4.89804643 21.6 10.9400929c0 .1226556-.0019925.2448397-.0059464.3665209.0022029.0071627.0008486.0084292-.0005053.0096957-.1348622 4.0452338-2.4374081 7.5332927-5.7679347 9.3100548C14.2555376 26.7644059 16.6638315 31.6 15.7926525 31.6 13.256058 31.6.29262936 24.444071.00486632 12.1736132L0 11.7580681v-.4455582c.00057881-.045905.00197333-.0917286.00417407-.137465l-.00196847-.234952C.0022056 4.89804643 4.83703656 0 10.8011028 0zm0 7.29339526c-1.98802208 0-3.5996324 1.63268214-3.5996324 3.64669764s1.61161032 3.6466976 3.5996324 3.6466976c1.9880221 0 3.5996324-1.6326821 3.5996324-3.6466976s-1.6116103-3.64669764-3.5996324-3.64669764z"/>
  </g>
</svg>
