<?xml version="1.0" encoding="UTF-8"?>
<svg width="175px" height="32px" viewBox="0 0 175 32" version="1.1" xmlns="http://www.w3.org/2000/svg" xmlns:xlink="http://www.w3.org/1999/xlink">
    <!-- Generator: Sketch 58 (84663) - https://sketch.com -->
    <title>Group</title>
    <desc>Created with Sketch.</desc>
    <g id="Page" stroke="none" stroke-width="1" fill="none" fill-rule="evenodd">
        <g id="Desktop-HD---Copy" transform="translate(-213.000000, -70.000000)" fill="#2388CC">
            <g id="Group-3" transform="translate(213.000000, 70.000000)">
                <g id="Group">
                    <path d="M33.676,14.912 L34.5076,14.912 C34.8420017,14.912 35.1191989,14.8658005 35.3392,14.7734 C35.5592011,14.6809995 35.7483992,14.533601 35.9068,14.3312 L41.1736,7.6652 C41.3936011,7.38359859 41.6245988,7.18780055 41.8666,7.0778 C42.1086012,6.96779945 42.4143982,6.9128 42.784,6.9128 L45.8464,6.9128 L39.418,14.846 C39.0395981,15.3300024 38.648002,15.673199 38.2432,15.8756 C38.5336015,15.9812005 38.7953988,16.1285991 39.0286,16.3178 C39.2618012,16.5070009 39.4839989,16.7555985 39.6952,17.0636 L46.3216,26 L43.1932,26 C42.7707979,26 42.456201,25.9406006 42.2494,25.8218 C42.042599,25.7029994 41.8688007,25.5292011 41.728,25.3004 L36.3292,18.2516 C36.1619992,18.0139988 35.9684011,17.8468005 35.7484,17.75 C35.5283989,17.6531995 35.2116021,17.6048 34.798,17.6048 L33.676,17.6048 L33.676,26 L30.1252,26 L30.1252,6.9128 L33.676,6.9128 L33.676,14.912 Z M54.862,20.2184 C53.9203953,20.2624002 53.1284032,20.3437994 52.486,20.4626 C51.8435968,20.5814006 51.3288019,20.7331991 50.9416,20.918 C50.5543981,21.1028009 50.2772008,21.3183988 50.11,21.5648 C49.9427992,21.8112012 49.8592,22.0795985 49.8592,22.37 C49.8592,22.9420029 50.0285983,23.3511988 50.3674,23.5976 C50.7062017,23.8440012 51.1483973,23.9672 51.694,23.9672 C52.3628033,23.9672 52.9413976,23.8462012 53.4298,23.6042 C53.9182024,23.3621988 54.3955977,22.9948025 54.862,22.502 L54.862,20.2184 Z M47.3908,14.3444 C48.9484078,12.9187929 50.822789,12.206 53.014,12.206 C53.806004,12.206 54.5143969,12.3357987 55.1392,12.5954 C55.7640031,12.8550013 56.2919978,13.2157977 56.7232,13.6778 C57.1544022,14.1398023 57.4821989,14.6919968 57.7066,15.3344 C57.9310011,15.9768032 58.0432,16.6807962 58.0432,17.4464 L58.0432,26 L56.5648,26 C56.2567985,26 56.0192008,25.9538005 55.852,25.8614 C55.6847992,25.7689995 55.5528005,25.5820014 55.456,25.3004 L55.1656,24.3236 C54.8223983,24.6316015 54.4880016,24.9021988 54.1624,25.1354 C53.8367984,25.3686012 53.4980018,25.5643992 53.146,25.7228 C52.7939982,25.8812008 52.417802,26.0021996 52.0174,26.0858 C51.616998,26.1694004 51.1748024,26.2112 50.6908,26.2112 C50.1187971,26.2112 49.5908024,26.1342008 49.1068,25.9802 C48.6227976,25.8261992 48.2048018,25.5952015 47.8528,25.2872 C47.5007982,24.9791985 47.228001,24.5964023 47.0344,24.1388 C46.840799,23.6811977 46.744,23.148803 46.744,22.5416 C46.744,22.1983983 46.8011994,21.8574017 46.9156,21.5186 C47.0300006,21.1797983 47.2169987,20.8564015 47.4766,20.5484 C47.7362013,20.2403985 48.0727979,19.9500014 48.4864,19.6772 C48.9000021,19.4043986 49.408197,19.166801 50.011,18.9644 C50.613803,18.761999 51.315596,18.5970006 52.1164,18.4694 C52.917204,18.3417994 53.8323949,18.2648001 54.862,18.2384 L54.862,17.4464 C54.862,16.5399955 54.6684019,15.8690022 54.2812,15.4334 C53.8939981,14.9977978 53.3352037,14.78 52.6048,14.78 C52.0767974,14.78 51.6390017,14.8415994 51.2914,14.9648 C50.9437983,15.0880006 50.6380013,15.2265992 50.374,15.3806 L49.6546,15.7964 L49.6546,15.7964 C49.4389989,15.9196006 49.1992013,15.9812 48.9352,15.9812 C48.7063989,15.9812 48.5128008,15.9218006 48.3544,15.803 C48.1959992,15.6841994 48.0684005,15.5456008 47.9716,15.3872 L47.3908,14.3444 Z M68.26,20.2184 C67.3183953,20.2624002 66.5264032,20.3437994 65.884,20.4626 C65.2415968,20.5814006 64.7268019,20.7331991 64.3396,20.918 C63.9523981,21.1028009 63.6752008,21.3183988 63.508,21.5648 C63.3407992,21.8112012 63.2572,22.0795985 63.2572,22.37 C63.2572,22.9420029 63.4265983,23.3511988 63.7654,23.5976 C64.1042017,23.8440012 64.5463973,23.9672 65.092,23.9672 C65.7608033,23.9672 66.3393976,23.8462012 66.8278,23.6042 C67.3162024,23.3621988 67.7935977,22.9948025 68.26,22.502 L68.26,20.2184 Z M60.7888,14.3444 C62.3464078,12.9187929 64.220789,12.206 66.412,12.206 C67.204004,12.206 67.9123969,12.3357987 68.5372,12.5954 C69.1620031,12.8550013 69.6899978,13.2157977 70.1212,13.6778 C70.5524022,14.1398023 70.8801989,14.6919968 71.1046,15.3344 C71.3290011,15.9768032 71.4412,16.6807962 71.4412,17.4464 L71.4412,26 L69.9628,26 C69.6547985,26 69.4172008,25.9538005 69.25,25.8614 C69.0827992,25.7689995 68.9508005,25.5820014 68.854,25.3004 L68.5636,24.3236 C68.2203983,24.6316015 67.8860016,24.9021988 67.5604,25.1354 C67.2347984,25.3686012 66.8960018,25.5643992 66.544,25.7228 C66.1919982,25.8812008 65.815802,26.0021996 65.4154,26.0858 C65.014998,26.1694004 64.5728024,26.2112 64.0888,26.2112 C63.5167971,26.2112 62.9888024,26.1342008 62.5048,25.9802 C62.0207976,25.8261992 61.6028018,25.5952015 61.2508,25.2872 C60.8987982,24.9791985 60.626001,24.5964023 60.4324,24.1388 C60.238799,23.6811977 60.142,23.148803 60.142,22.5416 C60.142,22.1983983 60.1991994,21.8574017 60.3136,21.5186 C60.4280006,21.1797983 60.6149987,20.8564015 60.8746,20.5484 C61.1342013,20.2403985 61.4707979,19.9500014 61.8844,19.6772 C62.2980021,19.4043986 62.806197,19.166801 63.409,18.9644 C64.011803,18.761999 64.713596,18.5970006 65.5144,18.4694 C66.315204,18.3417994 67.2303949,18.2648001 68.26,18.2384 L68.26,17.4464 C68.26,16.5399955 68.0664019,15.8690022 67.6792,15.4334 C67.2919981,14.9977978 66.7332037,14.78 66.0028,14.78 C65.4747974,14.78 65.0370017,14.8415994 64.6894,14.9648 C64.3417983,15.0880006 64.0360013,15.2265992 63.772,15.3806 L63.0526,15.7964 L63.0526,15.7964 C62.8369989,15.9196006 62.5972013,15.9812 62.3332,15.9812 C62.1043989,15.9812 61.9108008,15.9218006 61.7524,15.803 C61.5939992,15.6841994 61.4664005,15.5456008 61.3696,15.3872 L60.7888,14.3444 Z M82.7668,15.0968 C82.6787996,15.2376007 82.5864005,15.3365997 82.4896,15.3938 C82.3927995,15.4510003 82.2696007,15.4796 82.12,15.4796 C81.9615992,15.4796 81.7922009,15.4356004 81.6118,15.3476 L81.212867,15.1569335 C81.1400227,15.1227113 81.0640004,15.0872668 80.9848,15.0506 C80.7471988,14.9405995 80.4766015,14.8416004 80.173,14.7536 C79.8693985,14.6655996 79.5108021,14.6216 79.0972,14.6216 C78.4547968,14.6216 77.9510018,14.7579986 77.5858,15.0308 C77.2205982,15.3036014 77.038,15.6599978 77.038,16.1 C77.038,16.3904015 77.1325991,16.634599 77.3218,16.8326 C77.5110009,17.030601 77.7617984,17.2043993 78.0742,17.354 C78.3866016,17.5036007 78.740798,17.6377994 79.1368,17.7566 C79.532802,17.8754006 79.935398,18.0051993 80.3446,18.146 C80.753802,18.2868007 81.156398,18.4473991 81.5524,18.6278 C81.948402,18.8082009 82.3025984,19.0369986 82.615,19.3142 C82.9274016,19.5914014 83.1781991,19.9235981 83.3674,20.3108 C83.5566009,20.6980019 83.6512,21.1643973 83.6512,21.71 C83.6512,22.3612033 83.5346012,22.9617973 83.3014,23.5118 C83.0681988,24.0618027 82.7228023,24.536998 82.2652,24.9374 C81.8075977,25.337802 81.2422034,25.6501989 80.569,25.8746 C79.8957966,26.0990011 79.1192044,26.2112 78.2392,26.2112 C77.7727977,26.2112 77.3174022,26.1694004 76.873,26.0858 C76.4285978,26.0021996 76.001802,25.8856007 75.5926,25.736 C75.183398,25.5863993 74.8050017,25.410401 74.4574,25.208 C74.1097983,25.005599 73.8040013,24.7856012 73.54,24.548 L74.2924,23.3072 C74.3892005,23.1575993 74.5035993,23.0432004 74.6356,22.964 C74.7676007,22.8847996 74.934799,22.8452 75.1372,22.8452 C75.339601,22.8452 75.5309991,22.9023994 75.7114,23.0168 C75.8918009,23.1312006 76.1007988,23.2543993 76.3384,23.3864 C76.5760012,23.5184007 76.8553984,23.6415994 77.1766,23.756 C77.4978016,23.8704006 77.9047975,23.9276 78.3976,23.9276 C78.7848019,23.9276 79.1169986,23.8814005 79.3942,23.789 C79.6714014,23.6965995 79.9001991,23.5756007 80.0806,23.426 C80.2610009,23.2763993 80.3929996,23.102601 80.4766,22.9046 C80.5602004,22.706599 80.602,22.5020011 80.602,22.2908 C80.602,21.9739984 80.5074009,21.714401 80.3182,21.512 C80.1289991,21.309599 79.8782016,21.1336007 79.5658,20.984 C79.2533984,20.8343993 78.897002,20.7002006 78.4966,20.5814 C78.096198,20.4625994 77.6870021,20.3328007 77.269,20.192 C76.8509979,20.0511993 76.441802,19.8862009 76.0414,19.697 C75.640998,19.5077991 75.2846016,19.2680015 74.9722,18.9776 C74.6597984,18.6871985 74.4090009,18.3308021 74.2198,17.9084 C74.0305991,17.4859979 73.936,16.975603 73.936,16.3772 C73.936,15.8227972 74.0459989,15.2948025 74.266,14.7932 C74.4860011,14.2915975 74.8093979,13.8538019 75.2362,13.4798 C75.6630021,13.1057981 76.1953968,12.8066011 76.8334,12.5822 C77.4714032,12.3577989 78.2083958,12.2456 79.0444,12.2456 C79.9772047,12.2456 80.8263962,12.3995985 81.592,12.7076 C82.3576038,13.0156015 82.9955974,13.4203975 83.506,13.922 L82.7668,15.0968 Z M97.7752,12.4568 L97.7752,26 L95.782,26 C95.3507978,26 95.0780006,25.802002 94.9636,25.406 L94.7392,24.3236 C94.1847972,24.8868028 93.5732033,25.3421983 92.9044,25.6898 C92.2355967,26.0374017 91.4480045,26.2112 90.5416,26.2112 C89.8023963,26.2112 89.1490028,26.0858013 88.5814,25.835 C88.0137972,25.5841987 87.5364019,25.2300023 87.1492,24.7724 C86.7619981,24.3147977 86.469401,23.7714031 86.2714,23.1422 C86.073399,22.5129969 85.9744,21.8200038 85.9744,21.0632 L85.9744,12.4568 L89.2348,12.4568 L89.2348,21.0632 C89.2348,21.8904041 89.4261981,22.5305977 89.809,22.9838 C90.1918019,23.4370023 90.7659962,23.6636 91.5316,23.6636 C92.0948028,23.6636 92.6227975,23.5382013 93.1156,23.2874 C93.6084025,23.0365987 94.0747978,22.6912022 94.5148,22.2512 L94.5148,12.4568 L97.7752,12.4568 Z M104.296,6.3848 L104.296,26 L101.0356,26 L101.0356,6.3848 L104.296,6.3848 Z M110.8564,6.3848 L110.8564,26 L107.596,26 L107.596,6.3848 L110.8564,6.3848 Z M121.2712,20.2184 C120.329595,20.2624002 119.537603,20.3437994 118.8952,20.4626 C118.252797,20.5814006 117.738002,20.7331991 117.3508,20.918 C116.963598,21.1028009 116.686401,21.3183988 116.5192,21.5648 C116.351999,21.8112012 116.2684,22.0795985 116.2684,22.37 C116.2684,22.9420029 116.437798,23.3511988 116.7766,23.5976 C117.115402,23.8440012 117.557597,23.9672 118.1032,23.9672 C118.772003,23.9672 119.350598,23.8462012 119.839,23.6042 C120.327402,23.3621988 120.804798,22.9948025 121.2712,22.502 L121.2712,20.2184 Z M113.8,14.3444 C115.357608,12.9187929 117.231989,12.206 119.4232,12.206 C120.215204,12.206 120.923597,12.3357987 121.5484,12.5954 C122.173203,12.8550013 122.701198,13.2157977 123.1324,13.6778 C123.563602,14.1398023 123.891399,14.6919968 124.1158,15.3344 C124.340201,15.9768032 124.4524,16.6807962 124.4524,17.4464 L124.4524,26 L122.974,26 C122.665998,26 122.428401,25.9538005 122.2612,25.8614 C122.093999,25.7689995 121.962,25.5820014 121.8652,25.3004 L121.5748,24.3236 C121.231598,24.6316015 120.897202,24.9021988 120.5716,25.1354 C120.245998,25.3686012 119.907202,25.5643992 119.5552,25.7228 C119.203198,25.8812008 118.827002,26.0021996 118.4266,26.0858 C118.026198,26.1694004 117.584002,26.2112 117.1,26.2112 C116.527997,26.2112 116.000002,26.1342008 115.516,25.9802 C115.031998,25.8261992 114.614002,25.5952015 114.262,25.2872 C113.909998,24.9791985 113.637201,24.5964023 113.4436,24.1388 C113.249999,23.6811977 113.1532,23.148803 113.1532,22.5416 C113.1532,22.1983983 113.210399,21.8574017 113.3248,21.5186 C113.439201,21.1797983 113.626199,20.8564015 113.8858,20.5484 C114.145401,20.2403985 114.481998,19.9500014 114.8956,19.6772 C115.309202,19.4043986 115.817397,19.166801 116.4202,18.9644 C117.023003,18.761999 117.724796,18.5970006 118.5256,18.4694 C119.326404,18.3417994 120.241595,18.2648001 121.2712,18.2384 L121.2712,17.4464 C121.2712,16.5399955 121.077602,15.8690022 120.6904,15.4334 C120.303198,14.9977978 119.744404,14.78 119.014,14.78 C118.485997,14.78 118.048202,14.8415994 117.7006,14.9648 C117.352998,15.0880006 117.047201,15.2265992 116.7832,15.3806 L116.0638,15.7964 L116.0638,15.7964 C115.848199,15.9196006 115.608401,15.9812 115.3444,15.9812 C115.115599,15.9812 114.922001,15.9218006 114.7636,15.803 C114.605199,15.6841994 114.4776,15.5456008 114.3808,15.3872 L113.8,14.3444 Z M127.0396,24.2048 C127.0396,23.9319986 127.090199,23.6724012 127.1914,23.426 C127.292601,23.1795988 127.431199,22.9684009 127.6072,22.7924 C127.783201,22.6163991 127.994399,22.4756005 128.2408,22.37 C128.487201,22.2643995 128.751199,22.2116 129.0328,22.2116 C129.314401,22.2116 129.576199,22.2643995 129.8182,22.37 C130.060201,22.4756005 130.271399,22.6163991 130.4518,22.7924 C130.632201,22.9684009 130.775199,23.1795988 130.8808,23.426 C130.986401,23.6724012 131.0392,23.9319986 131.0392,24.2048 C131.0392,24.4864014 130.986401,24.7481988 130.8808,24.9902 C130.775199,25.2322012 130.632201,25.4411991 130.4518,25.6172 C130.271399,25.7932009 130.060201,25.9317995 129.8182,26.033 C129.576199,26.1342005 129.314401,26.1848 129.0328,26.1848 C128.751199,26.1848 128.487201,26.1342005 128.2408,26.033 C127.994399,25.9317995 127.783201,25.7932009 127.6072,25.6172 C127.431199,25.4411991 127.292601,25.2322012 127.1914,24.9902 C127.090199,24.7481988 127.0396,24.4864014 127.0396,24.2048 Z M140.9392,20.2184 C139.997595,20.2624002 139.205603,20.3437994 138.5632,20.4626 C137.920797,20.5814006 137.406002,20.7331991 137.0188,20.918 C136.631598,21.1028009 136.354401,21.3183988 136.1872,21.5648 C136.019999,21.8112012 135.9364,22.0795985 135.9364,22.37 C135.9364,22.9420029 136.105798,23.3511988 136.4446,23.5976 C136.783402,23.8440012 137.225597,23.9672 137.7712,23.9672 C138.440003,23.9672 139.018598,23.8462012 139.507,23.6042 C139.995402,23.3621988 140.472798,22.9948025 140.9392,22.502 L140.9392,20.2184 Z M133.468,14.3444 C135.025608,12.9187929 136.899989,12.206 139.0912,12.206 C139.883204,12.206 140.591597,12.3357987 141.2164,12.5954 C141.841203,12.8550013 142.369198,13.2157977 142.8004,13.6778 C143.231602,14.1398023 143.559399,14.6919968 143.7838,15.3344 C144.008201,15.9768032 144.1204,16.6807962 144.1204,17.4464 L144.1204,26 L142.642,26 C142.333998,26 142.096401,25.9538005 141.9292,25.8614 C141.761999,25.7689995 141.63,25.5820014 141.5332,25.3004 L141.2428,24.3236 C140.899598,24.6316015 140.565202,24.9021988 140.2396,25.1354 C139.913998,25.3686012 139.575202,25.5643992 139.2232,25.7228 C138.871198,25.8812008 138.495002,26.0021996 138.0946,26.0858 C137.694198,26.1694004 137.252002,26.2112 136.768,26.2112 C136.195997,26.2112 135.668002,26.1342008 135.184,25.9802 C134.699998,25.8261992 134.282002,25.5952015 133.93,25.2872 C133.577998,24.9791985 133.305201,24.5964023 133.1116,24.1388 C132.917999,23.6811977 132.8212,23.148803 132.8212,22.5416 C132.8212,22.1983983 132.878399,21.8574017 132.9928,21.5186 C133.107201,21.1797983 133.294199,20.8564015 133.5538,20.5484 C133.813401,20.2403985 134.149998,19.9500014 134.5636,19.6772 C134.977202,19.4043986 135.485397,19.166801 136.0882,18.9644 C136.691003,18.761999 137.392796,18.5970006 138.1936,18.4694 C138.994404,18.3417994 139.909595,18.2648001 140.9392,18.2384 L140.9392,17.4464 C140.9392,16.5399955 140.745602,15.8690022 140.3584,15.4334 C139.971198,14.9977978 139.412404,14.78 138.682,14.78 C138.153997,14.78 137.716202,14.8415994 137.3686,14.9648 C137.020998,15.0880006 136.715201,15.2265992 136.4512,15.3806 L135.7318,15.7964 L135.7318,15.7964 C135.516199,15.9196006 135.276401,15.9812 135.0124,15.9812 C134.783599,15.9812 134.590001,15.9218006 134.4316,15.803 C134.273199,15.6841994 134.1456,15.5456008 134.0488,15.3872 L133.468,14.3444 Z M150.4432,22.4888 C150.812802,22.9376022 151.215398,23.2543991 151.651,23.4392 C152.086602,23.6240009 152.559597,23.7164 153.07,23.7164 C153.562802,23.7164 154.007198,23.6240009 154.4032,23.4392 C154.799202,23.2543991 155.135799,22.9728019 155.413,22.5944 C155.690201,22.2159981 155.903599,21.7386029 156.0532,21.1622 C156.202801,20.5857971 156.2776,19.9060039 156.2776,19.1228 C156.2776,18.330796 156.213801,17.6598027 156.0862,17.1098 C155.958599,16.5597973 155.776001,16.1132017 155.5384,15.77 C155.300799,15.4267983 155.012602,15.1760008 154.6738,15.0176 C154.334998,14.8591992 153.950002,14.78 153.5188,14.78 C152.841197,14.78 152.264802,14.9229986 151.7896,15.209 C151.314398,15.4950014 150.865602,15.8975974 150.4432,16.4168 L150.4432,22.4888 Z M150.2716,14.3048 C150.826003,13.6799969 151.455196,13.1740019 152.1592,12.7868 C152.863204,12.3995981 153.690395,12.206 154.6408,12.206 C155.380004,12.206 156.055397,12.3599985 156.667,12.668 C157.278603,12.9760015 157.806598,13.4225971 158.251,14.0078 C158.695402,14.5930029 159.038599,15.3145957 159.2806,16.1726 C159.522601,17.0306043 159.6436,18.0139945 159.6436,19.1228 C159.6436,20.1348051 159.507201,21.0719957 159.2344,21.9344 C158.961599,22.7968043 158.572203,23.5447968 158.0662,24.1784 C157.560197,24.8120032 156.948604,25.3069982 156.2314,25.6634 C155.514196,26.0198018 154.711204,26.198 153.8224,26.198 C153.065596,26.198 152.418803,26.0814012 151.882,25.8482 C151.345197,25.6149988 150.865602,25.2916021 150.4432,24.878 L150.4432,30.422 L147.1828,30.422 L147.1828,12.4568 L149.176,12.4568 C149.598402,12.4568 149.875599,12.654798 150.0076,13.0508 L150.2716,14.3048 Z M165.4384,22.4888 C165.808002,22.9376022 166.210598,23.2543991 166.6462,23.4392 C167.081802,23.6240009 167.554797,23.7164 168.0652,23.7164 C168.558002,23.7164 169.002398,23.6240009 169.3984,23.4392 C169.794402,23.2543991 170.130999,22.9728019 170.4082,22.5944 C170.685401,22.2159981 170.898799,21.7386029 171.0484,21.1622 C171.198001,20.5857971 171.2728,19.9060039 171.2728,19.1228 C171.2728,18.330796 171.209001,17.6598027 171.0814,17.1098 C170.953799,16.5597973 170.771201,16.1132017 170.5336,15.77 C170.295999,15.4267983 170.007802,15.1760008 169.669,15.0176 C169.330198,14.8591992 168.945202,14.78 168.514,14.78 C167.836397,14.78 167.260002,14.9229986 166.7848,15.209 C166.309598,15.4950014 165.860802,15.8975974 165.4384,16.4168 L165.4384,22.4888 Z M165.2668,14.3048 C165.821203,13.6799969 166.450396,13.1740019 167.1544,12.7868 C167.858404,12.3995981 168.685595,12.206 169.636,12.206 C170.375204,12.206 171.050597,12.3599985 171.6622,12.668 C172.273803,12.9760015 172.801798,13.4225971 173.2462,14.0078 C173.690602,14.5930029 174.033799,15.3145957 174.2758,16.1726 C174.517801,17.0306043 174.6388,18.0139945 174.6388,19.1228 C174.6388,20.1348051 174.502401,21.0719957 174.2296,21.9344 C173.956799,22.7968043 173.567403,23.5447968 173.0614,24.1784 C172.555397,24.8120032 171.943804,25.3069982 171.2266,25.6634 C170.509396,26.0198018 169.706404,26.198 168.8176,26.198 C168.060796,26.198 167.414003,26.0814012 166.8772,25.8482 C166.340397,25.6149988 165.860802,25.2916021 165.4384,24.878 L165.4384,30.422 L162.178,30.422 L162.178,12.4568 L164.1712,12.4568 C164.593602,12.4568 164.870799,12.654798 165.0028,13.0508 L165.2668,14.3048 Z" id="Kaasulla.app" fill-rule="nonzero"></path>
                    <path d="M10.8011028,1.77635684e-15 C16.765169,1.77635684e-15 21.6,4.89804643 21.6,10.9400929 C21.6,11.0627485 21.5980075,11.1849326 21.5940536,11.3066138 C21.5962565,11.3137765 21.5949022,11.315043 21.5935483,11.3163095 C21.4586861,15.3615433 19.1561402,18.8496022 15.8256136,20.6263643 C14.2555376,26.7644059 16.6638315,31.6 15.7926525,31.6 C13.256058,31.6 0.292629356,24.444071 0.00486632421,12.1736132 L-6.68471561e-13,11.7580681 L-6.68444278e-13,11.3125099 C0.000578811161,11.2666049 0.00197333145,11.2207813 0.00417407246,11.1750449 L0.00220559679,10.9400929 C0.00220559679,4.89804643 4.83703656,1.77635684e-15 10.8011028,1.77635684e-15 Z M10.8011028,7.29339526 C8.81308072,7.29339526 7.2014704,8.9260774 7.2014704,10.9400929 C7.2014704,12.9541084 8.81308072,14.5867905 10.8011028,14.5867905 C12.7891249,14.5867905 14.4007352,12.9541084 14.4007352,10.9400929 C14.4007352,8.9260774 12.7891249,7.29339526 10.8011028,7.29339526 Z" id="Combined-Shape" transform="translate(10.800000, 15.800000) rotate(-360.000000) translate(-10.800000, -15.800000) "></path>
                </g>
            </g>
        </g>
    </g>
</svg>