<?xml version="1.0" encoding="UTF-8"?>
<svg width="94px" height="17px" viewBox="0 0 94 17" version="1.1" xmlns="http://www.w3.org/2000/svg" xmlns:xlink="http://www.w3.org/1999/xlink">
    <!-- Generator: Sketch 58 (84663) - https://sketch.com -->
    <title>Group</title>
    <desc>Created with Sketch.</desc>
    <g id="App" stroke="none" stroke-width="1" fill="none" fill-rule="evenodd">
        <g id="Mobile---Localhost-versio" transform="translate(-109.000000, -992.000000)" fill="#FFFFFF">
            <g id="Group" transform="translate(109.000000, 992.000000)">
                <path d="M18.1042176,8.0166912 L18.5512858,8.0166912 C18.7310601,8.0166912 18.8800813,7.99185433 18.9983539,7.94217984 C19.1166265,7.89250535 19.2183394,7.8132639 19.3034957,7.70445312 L22.1349274,4.12081152 C22.2532,3.9694226 22.3773843,3.86416158 22.5074842,3.80502528 C22.637584,3.74588898 22.8019804,3.71632128 23.0006784,3.71632128 L24.6470246,3.71632128 L21.1911168,7.9812096 C20.9876879,8.2414093 20.7771659,8.42591178 20.5595443,8.53472256 C20.7156641,8.5914934 20.8564064,8.67073485 20.9817754,8.77244928 C21.1071443,8.87416371 21.2265978,9.00780973 21.3401395,9.17339136 L24.9024922,13.9776 L23.2206643,13.9776 C22.9935809,13.9776 22.8244537,13.9456669 22.7132774,13.8817997 C22.6021012,13.8179325 22.5086673,13.7244985 22.4329728,13.601495 L19.5305779,9.81206016 C19.4406908,9.68432576 19.3366124,9.59443994 19.2183398,9.5424 C19.1000672,9.49036006 18.9297573,9.46434048 18.7074048,9.46434048 L18.1042176,9.46434048 L18.1042176,13.9776 L16.1953075,13.9776 L16.1953075,3.71632128 L18.1042176,3.71632128 L18.1042176,8.0166912 Z M29.4938112,10.8694118 C28.9876045,10.8930664 28.5618296,10.9368266 28.2164736,11.0006938 C27.8711176,11.064561 27.5943639,11.1461678 27.3862042,11.2455168 C27.1780444,11.3448658 27.0290232,11.4607712 26.939136,11.5932365 C26.8492488,11.7257018 26.8043059,11.8699922 26.8043059,12.026112 C26.8043059,12.3336207 26.8953744,12.5536045 27.0775142,12.6860698 C27.259654,12.8185351 27.4973784,12.8847667 27.7906944,12.8847667 C28.1502431,12.8847667 28.4612953,12.8197178 28.7238605,12.6896179 C28.9864256,12.5595181 29.2430733,12.3620058 29.4938112,12.0970752 L29.4938112,10.8694118 Z M25.4772941,7.71154944 C26.314664,6.94514305 27.3223314,6.5619456 28.5003264,6.5619456 C28.9261077,6.5619456 29.3069398,6.63172538 29.6428339,6.77128704 C29.9787281,6.9108487 30.262578,7.10481284 30.4943923,7.35318528 C30.7262066,7.60155772 30.9024301,7.89841747 31.0230682,8.24377344 C31.1437062,8.58912941 31.2040243,8.96759602 31.2040243,9.37918464 L31.2040243,13.9776 L30.4092365,13.9776 C30.2436549,13.9776 30.1159224,13.9527631 30.0260352,13.9030886 C29.936148,13.8534142 29.8651855,13.752884 29.8131456,13.601495 L29.6570266,13.0763674 C29.4725213,13.241949 29.2927497,13.3874221 29.1177062,13.512791 C28.9426628,13.63816 28.7605257,13.743421 28.5712896,13.8285773 C28.3820535,13.9137335 28.1798104,13.9787825 27.9645542,14.0237261 C27.7492981,14.0686697 27.5115738,14.0911411 27.2513741,14.0911411 C26.9438653,14.0911411 26.6600154,14.0497463 26.3998157,13.9669555 C26.139616,13.8841647 25.9149014,13.7599803 25.7256653,13.5943987 C25.5364291,13.4288171 25.3897733,13.2230259 25.2856934,12.9770189 C25.1816136,12.7310119 25.1295744,12.4447965 25.1295744,12.1183642 C25.1295744,11.9338589 25.1603248,11.7505392 25.2218266,11.5683994 C25.2833283,11.3862596 25.3838585,11.2124015 25.5234202,11.0468198 C25.6629818,10.8812382 25.8439362,10.7251207 26.0662886,10.5784627 C26.2886411,10.4318047 26.5618467,10.3040722 26.8859136,10.1952614 C27.2099805,10.0864507 27.5872644,9.99774754 28.0177766,9.92914944 C28.4482889,9.86055134 28.9402955,9.81915655 29.4938112,9.80496384 L29.4938112,9.37918464 C29.4938112,8.89190156 29.3897329,8.53117557 29.1815731,8.29699584 C28.9734134,8.06281611 28.6730055,7.945728 28.2803405,7.945728 C27.9964863,7.945728 27.7611273,7.97884383 27.5742566,8.04507648 C27.3873859,8.11130913 27.2229895,8.18581975 27.0810624,8.26861056 L26.694313,8.49214464 L26.694313,8.49214464 C26.5784058,8.55837729 26.4494906,8.59149312 26.3075635,8.59149312 C26.18456,8.59149312 26.0804817,8.55956 25.9953254,8.4956928 C25.9101692,8.4318256 25.8415721,8.35731499 25.7895322,8.27215872 L25.4772941,7.71154944 Z M36.696576,10.8694118 C36.1903693,10.8930664 35.7645944,10.9368266 35.4192384,11.0006938 C35.0738824,11.064561 34.7971287,11.1461678 34.588969,11.2455168 C34.3808092,11.3448658 34.231788,11.4607712 34.1419008,11.5932365 C34.0520136,11.7257018 34.0070707,11.8699922 34.0070707,12.026112 C34.0070707,12.3336207 34.0981392,12.5536045 34.280279,12.6860698 C34.4624188,12.8185351 34.7001432,12.8847667 34.9934592,12.8847667 C35.3530079,12.8847667 35.6640601,12.8197178 35.9266253,12.6896179 C36.1891904,12.5595181 36.4458381,12.3620058 36.696576,12.0970752 L36.696576,10.8694118 Z M32.6800589,7.71154944 C33.5174288,6.94514305 34.5250962,6.5619456 35.7030912,6.5619456 C36.1288725,6.5619456 36.5097046,6.63172538 36.8455987,6.77128704 C37.1814929,6.9108487 37.4653428,7.10481284 37.6971571,7.35318528 C37.9289714,7.60155772 38.1051949,7.89841747 38.225833,8.24377344 C38.346471,8.58912941 38.4067891,8.96759602 38.4067891,9.37918464 L38.4067891,13.9776 L37.6120013,13.9776 C37.4464197,13.9776 37.3186872,13.9527631 37.2288,13.9030886 C37.1389128,13.8534142 37.0679503,13.752884 37.0159104,13.601495 L36.8597914,13.0763674 C36.6752861,13.241949 36.4955145,13.3874221 36.320471,13.512791 C36.1454276,13.63816 35.9632905,13.743421 35.7740544,13.8285773 C35.5848183,13.9137335 35.3825752,13.9787825 35.167319,14.0237261 C34.9520629,14.0686697 34.7143386,14.0911411 34.4541389,14.0911411 C34.1466301,14.0911411 33.8627802,14.0497463 33.6025805,13.9669555 C33.3423808,13.8841647 33.1176662,13.7599803 32.9284301,13.5943987 C32.7391939,13.4288171 32.5925381,13.2230259 32.4884582,12.9770189 C32.3843784,12.7310119 32.3323392,12.4447965 32.3323392,12.1183642 C32.3323392,11.9338589 32.3630896,11.7505392 32.4245914,11.5683994 C32.4860931,11.3862596 32.5866233,11.2124015 32.726185,11.0468198 C32.8657466,10.8812382 33.046701,10.7251207 33.2690534,10.5784627 C33.4914059,10.4318047 33.7646115,10.3040722 34.0886784,10.1952614 C34.4127453,10.0864507 34.7900292,9.99774754 35.2205414,9.92914944 C35.6510537,9.86055134 36.1430603,9.81915655 36.696576,9.80496384 L36.696576,9.37918464 C36.696576,8.89190156 36.5924977,8.53117557 36.3843379,8.29699584 C36.1761782,8.06281611 35.8757703,7.945728 35.4831053,7.945728 C35.1992511,7.945728 34.9638921,7.97884383 34.7770214,8.04507648 C34.5901507,8.11130913 34.4257543,8.18581975 34.2838272,8.26861056 L33.8970778,8.49214464 L33.8970778,8.49214464 C33.7811706,8.55837729 33.6522554,8.59149312 33.5103283,8.59149312 C33.3873248,8.59149312 33.2832465,8.55956 33.1980902,8.4956928 C33.112934,8.4318256 33.0443369,8.35731499 32.992297,8.27215872 L32.6800589,7.71154944 Z M44.4954317,8.11603968 C44.4481226,8.19173414 44.3984489,8.24495601 44.346409,8.27570688 C44.294369,8.30645775 44.2281374,8.32183296 44.147712,8.32183296 C44.0625557,8.32183296 43.9714872,8.2981788 43.8745037,8.25086976 L43.6600373,8.14836744 C43.6208762,8.1299696 43.5800066,8.11091466 43.5374285,8.09120256 C43.4096941,8.03206626 43.264221,7.9788444 43.1010048,7.93153536 C42.9377886,7.88422632 42.7450072,7.86057216 42.5226547,7.86057216 C42.1772988,7.86057216 41.9064586,7.93390007 41.7101261,8.08055808 C41.5137936,8.22721609 41.4156288,8.41881482 41.4156288,8.65536 C41.4156288,8.81147982 41.4664853,8.94276043 41.5681997,9.04920576 C41.6699141,9.15565109 41.8047428,9.24908504 41.9726899,9.3295104 C42.140637,9.40993576 42.331053,9.48208096 42.5439437,9.54594816 C42.7568343,9.60981536 42.9732699,9.67959514 43.193257,9.7552896 C43.413244,9.83098406 43.6296796,9.91732176 43.8425702,10.0143053 C44.0554609,10.1112888 44.2458769,10.2342905 44.413824,10.3833139 C44.5817711,10.5323374 44.7165998,10.7109263 44.8183142,10.9190861 C44.9200287,11.1272458 44.9708851,11.37798 44.9708851,11.671296 C44.9708851,12.0213829 44.9082016,12.3442622 44.7828326,12.6399437 C44.6574637,12.9356252 44.4717785,13.1910901 44.2257715,13.4063462 C43.9797645,13.6216024 43.6758085,13.7895469 43.3138944,13.910185 C42.9519803,14.030823 42.5344843,14.0911411 42.0613939,14.0911411 C41.810656,14.0911411 41.5658354,14.0686697 41.3269248,14.0237261 C41.0880142,13.9787825 40.8585688,13.916099 40.6385818,13.8356736 C40.4185947,13.7552482 40.2151689,13.6606316 40.0282982,13.5518208 C39.8414275,13.44301 39.6770311,13.3247392 39.535104,13.1970048 L39.9395942,12.5299507 C39.9916342,12.4495254 40.053135,12.3880245 40.1240986,12.3454464 C40.1950621,12.3028683 40.2849479,12.2815795 40.3937587,12.2815795 C40.5025695,12.2815795 40.6054651,12.3123299 40.7024486,12.3738317 C40.7994322,12.4353334 40.9117894,12.5015651 41.0395238,12.5725286 C41.1672582,12.6434922 41.3174622,12.7097239 41.4901402,12.7712256 C41.6628181,12.8327273 41.8816192,12.8634778 42.1465498,12.8634778 C42.3547095,12.8634778 42.5332985,12.8386409 42.6823219,12.7889664 C42.8313454,12.7392919 42.954347,12.674243 43.0513306,12.5938176 C43.1483141,12.5133922 43.2192766,12.4199583 43.2642202,12.313513 C43.3091637,12.2070676 43.3316352,12.0970758 43.3316352,11.9835341 C43.3316352,11.8132215 43.2807787,11.673662 43.1790643,11.5648512 C43.0773499,11.4560404 42.9425212,11.3614238 42.7745741,11.2809984 C42.606627,11.200573 42.4150283,11.1284278 42.1997722,11.0645606 C41.984516,11.0006934 41.7645323,10.9309137 41.5398144,10.8552192 C41.3150965,10.7795247 41.0951128,10.6908216 40.8798566,10.5891072 C40.6646005,10.4873928 40.4730018,10.3584776 40.3050547,10.2023578 C40.1371076,10.0462379 40.0022789,9.85463922 39.9005645,9.62755584 C39.7988501,9.40047246 39.7479936,9.12608417 39.7479936,8.80438272 C39.7479936,8.50633579 39.807129,8.22248583 39.9254016,7.95282432 C40.0436742,7.68316281 40.2175323,7.44780389 40.4469811,7.24674048 C40.6764299,7.04567707 40.9626453,6.88482876 41.3056358,6.76419072 C41.6486264,6.64355268 42.0448336,6.58323456 42.4942694,6.58323456 C42.9957452,6.58323456 43.4522706,6.66602413 43.8638592,6.83160576 C44.2754478,6.99718739 44.6184332,7.21480569 44.8928256,7.4844672 L44.4954317,8.11603968 Z M52.5639475,6.69677568 L52.5639475,13.9776 L51.4924032,13.9776 C51.2605889,13.9776 51.1139331,13.8711563 51.0524314,13.6582656 L50.9317939,13.0763674 C50.633747,13.3791452 50.3049541,13.6239658 49.9454054,13.8108365 C49.5858568,13.9977072 49.1624472,14.0911411 48.6751642,14.0911411 C48.2777683,14.0911411 47.9265039,14.0237268 47.6213606,13.888896 C47.3162174,13.7540652 47.0595697,13.5636492 46.8514099,13.3176422 C46.6432502,13.0716352 46.48595,12.7795063 46.3795046,12.4412467 C46.2730593,12.1029871 46.2198374,11.730434 46.2198374,11.3235763 L46.2198374,6.69677568 L47.9726285,6.69677568 L47.9726285,11.3235763 C47.9726285,11.7682813 48.0755241,12.1124493 48.2813184,12.3560909 C48.4871127,12.5997324 48.7957995,12.7215514 49.2073882,12.7215514 C49.510166,12.7215514 49.794016,12.654137 50.0589466,12.5193062 C50.3238772,12.3844755 50.5746113,12.1987903 50.8111565,11.9622451 L50.8111565,6.69677568 L52.5639475,6.69677568 Z M56.0695296,3.43246848 L56.0695296,13.9776 L54.3167386,13.9776 L54.3167386,3.43246848 L56.0695296,3.43246848 Z M59.5964006,3.43246848 L59.5964006,13.9776 L57.8436096,13.9776 L57.8436096,3.43246848 L59.5964006,3.43246848 Z M65.1953971,10.8694118 C64.6891904,10.8930664 64.2634155,10.9368266 63.9180595,11.0006938 C63.5727036,11.064561 63.2959498,11.1461678 63.0877901,11.2455168 C62.8796303,11.3448658 62.7306091,11.4607712 62.6407219,11.5932365 C62.5508348,11.7257018 62.5058918,11.8699922 62.5058918,12.026112 C62.5058918,12.3336207 62.5969604,12.5536045 62.7791002,12.6860698 C62.96124,12.8185351 63.1989643,12.8847667 63.4922803,12.8847667 C63.851829,12.8847667 64.1628812,12.8197178 64.4254464,12.6896179 C64.6880116,12.5595181 64.9446592,12.3620058 65.1953971,12.0970752 L65.1953971,10.8694118 Z M61.17888,7.71154944 C62.0162499,6.94514305 63.0239173,6.5619456 64.2019123,6.5619456 C64.6276936,6.5619456 65.0085257,6.63172538 65.3444198,6.77128704 C65.680314,6.9108487 65.964164,7.10481284 66.1959782,7.35318528 C66.4277925,7.60155772 66.604016,7.89841747 66.7246541,8.24377344 C66.8452921,8.58912941 66.9056102,8.96759602 66.9056102,9.37918464 L66.9056102,13.9776 L66.1108224,13.9776 C65.9452408,13.9776 65.8175083,13.9527631 65.7276211,13.9030886 C65.637734,13.8534142 65.5667715,13.752884 65.5147315,13.601495 L65.3586125,13.0763674 C65.1741072,13.241949 64.9943356,13.3874221 64.8192922,13.512791 C64.6442487,13.63816 64.4621117,13.743421 64.2728755,13.8285773 C64.0836394,13.9137335 63.8813963,13.9787825 63.6661402,14.0237261 C63.450884,14.0686697 63.2131597,14.0911411 62.95296,14.0911411 C62.6454513,14.0911411 62.3616013,14.0497463 62.1014016,13.9669555 C61.8412019,13.8841647 61.6164873,13.7599803 61.4272512,13.5943987 C61.2380151,13.4288171 61.0913592,13.2230259 60.9872794,12.9770189 C60.8831995,12.7310119 60.8311603,12.4447965 60.8311603,12.1183642 C60.8311603,11.9338589 60.8619107,11.7505392 60.9234125,11.5683994 C60.9849142,11.3862596 61.0854444,11.2124015 61.2250061,11.0468198 C61.3645677,10.8812382 61.5455221,10.7251207 61.7678746,10.5784627 C61.990227,10.4318047 62.2634326,10.3040722 62.5874995,10.1952614 C62.9115664,10.0864507 63.2888503,9.99774754 63.7193626,9.92914944 C64.1498748,9.86055134 64.6418814,9.81915655 65.1953971,9.80496384 L65.1953971,9.37918464 C65.1953971,8.89190156 65.0913188,8.53117557 64.883159,8.29699584 C64.6749993,8.06281611 64.3745914,7.945728 63.9819264,7.945728 C63.6980722,7.945728 63.4627133,7.97884383 63.2758426,8.04507648 C63.0889719,8.11130913 62.9245754,8.18581975 62.7826483,8.26861056 L62.3958989,8.49214464 L62.3958989,8.49214464 C62.2799917,8.55837729 62.1510765,8.59149312 62.0091494,8.59149312 C61.8861459,8.59149312 61.7820676,8.55956 61.6969114,8.4956928 C61.6117551,8.4318256 61.543158,8.35731499 61.4911181,8.27215872 L61.17888,7.71154944 Z M68.296489,13.0125005 C68.296489,12.8658425 68.3236912,12.7262829 68.3780966,12.5938176 C68.432502,12.4613523 68.5070126,12.3478123 68.6016307,12.2531942 C68.6962488,12.1585762 68.8097888,12.0828828 68.9422541,12.026112 C69.0747194,11.9693412 69.2166444,11.9409562 69.3680333,11.9409562 C69.5194222,11.9409562 69.6601645,11.9693412 69.7902643,12.026112 C69.9203642,12.0828828 70.0339042,12.1585762 70.1308877,12.2531942 C70.2278712,12.3478123 70.3047472,12.4613523 70.3615181,12.5938176 C70.4182889,12.7262829 70.4466739,12.8658425 70.4466739,13.0125005 C70.4466739,13.1638894 70.4182889,13.3046317 70.3615181,13.4347315 C70.3047472,13.5648314 70.2278712,13.6771886 70.1308877,13.7718067 C70.0339042,13.8664248 69.9203642,13.9409354 69.7902643,13.9953408 C69.6601645,14.0497462 69.5194222,14.0769485 69.3680333,14.0769485 C69.2166444,14.0769485 69.0747194,14.0497462 68.9422541,13.9953408 C68.8097888,13.9409354 68.6962488,13.8664248 68.6016307,13.7718067 C68.5070126,13.6771886 68.432502,13.5648314 68.3780966,13.4347315 C68.3236912,13.3046317 68.296489,13.1638894 68.296489,13.0125005 Z M75.7689139,10.8694118 C75.2627072,10.8930664 74.8369323,10.9368266 74.4915763,11.0006938 C74.1462204,11.064561 73.8694666,11.1461678 73.6613069,11.2455168 C73.4531471,11.3448658 73.3041259,11.4607712 73.2142387,11.5932365 C73.1243516,11.7257018 73.0794086,11.8699922 73.0794086,12.026112 C73.0794086,12.3336207 73.1704772,12.5536045 73.352617,12.6860698 C73.5347568,12.8185351 73.7724811,12.8847667 74.0657971,12.8847667 C74.4253458,12.8847667 74.736398,12.8197178 74.9989632,12.6896179 C75.2615284,12.5595181 75.518176,12.3620058 75.7689139,12.0970752 L75.7689139,10.8694118 Z M71.7523968,7.71154944 C72.5897667,6.94514305 73.5974341,6.5619456 74.7754291,6.5619456 C75.2012104,6.5619456 75.5820425,6.63172538 75.9179366,6.77128704 C76.2538308,6.9108487 76.5376808,7.10481284 76.769495,7.35318528 C77.0013093,7.60155772 77.1775328,7.89841747 77.2981709,8.24377344 C77.4188089,8.58912941 77.479127,8.96759602 77.479127,9.37918464 L77.479127,13.9776 L76.6843392,13.9776 C76.5187576,13.9776 76.3910251,13.9527631 76.3011379,13.9030886 C76.2112508,13.8534142 76.1402883,13.752884 76.0882483,13.601495 L75.9321293,13.0763674 C75.747624,13.241949 75.5678524,13.3874221 75.392809,13.512791 C75.2177655,13.63816 75.0356285,13.743421 74.8463923,13.8285773 C74.6571562,13.9137335 74.4549131,13.9787825 74.239657,14.0237261 C74.0244008,14.0686697 73.7866765,14.0911411 73.5264768,14.0911411 C73.2189681,14.0911411 72.9351181,14.0497463 72.6749184,13.9669555 C72.4147187,13.8841647 72.1900041,13.7599803 72.000768,13.5943987 C71.8115319,13.4288171 71.664876,13.2230259 71.5607962,12.9770189 C71.4567163,12.7310119 71.4046771,12.4447965 71.4046771,12.1183642 C71.4046771,11.9338589 71.4354275,11.7505392 71.4969293,11.5683994 C71.558431,11.3862596 71.6589612,11.2124015 71.7985229,11.0468198 C71.9380845,10.8812382 72.1190389,10.7251207 72.3413914,10.5784627 C72.5637438,10.4318047 72.8369494,10.3040722 73.1610163,10.1952614 C73.4850832,10.0864507 73.8623671,9.99774754 74.2928794,9.92914944 C74.7233916,9.86055134 75.2153982,9.81915655 75.7689139,9.80496384 L75.7689139,9.37918464 C75.7689139,8.89190156 75.6648356,8.53117557 75.4566758,8.29699584 C75.2485161,8.06281611 74.9481082,7.945728 74.5554432,7.945728 C74.271589,7.945728 74.0362301,7.97884383 73.8493594,8.04507648 C73.6624887,8.11130913 73.4980922,8.18581975 73.3561651,8.26861056 L72.9694157,8.49214464 L72.9694157,8.49214464 C72.8535085,8.55837729 72.7245933,8.59149312 72.5826662,8.59149312 C72.4596627,8.59149312 72.3555844,8.55956 72.2704282,8.4956928 C72.1852719,8.4318256 72.1166748,8.35731499 72.0646349,8.27215872 L71.7523968,7.71154944 Z M80.8782643,12.0899789 C81.0769623,12.331255 81.2933979,12.5015649 81.5275776,12.6009139 C81.7617573,12.7002629 82.0160396,12.7499366 82.290432,12.7499366 C82.5553626,12.7499366 82.7942697,12.7002629 83.0071603,12.6009139 C83.220051,12.5015649 83.4010053,12.3501783 83.5500288,12.1467494 C83.6990523,11.9433206 83.813775,11.6866729 83.8942003,11.3767987 C83.9746257,11.0669245 84.0148378,10.7014677 84.0148378,10.2804173 C84.0148378,9.85463595 83.9805392,9.49390996 83.9119411,9.19822848 C83.843343,8.902547 83.7451782,8.66245724 83.6174438,8.477952 C83.4897094,8.29344676 83.3347747,8.15861803 83.1526349,8.07346176 C82.9704951,7.98830549 82.7635212,7.945728 82.5317069,7.945728 C82.1674273,7.945728 81.8575578,8.02260403 81.602089,8.1763584 C81.3466202,8.33011277 81.1053477,8.54654836 80.8782643,8.82567168 L80.8782643,12.0899789 Z M80.7860122,7.69026048 C81.0840591,7.35436632 81.4223136,7.08234344 81.8007859,6.87418368 C82.1792582,6.66602392 82.6239565,6.5619456 83.1348941,6.5619456 C83.53229,6.5619456 83.8953814,6.64473517 84.2241792,6.8103168 C84.552977,6.97589843 84.836827,7.21598819 85.0757376,7.53059328 C85.3146482,7.84519837 85.4991507,8.23312665 85.6292506,8.69438976 C85.7593504,9.15565287 85.8243994,9.68432342 85.8243994,10.2804173 C85.8243994,10.8244712 85.7510715,11.3283049 85.6044134,11.7919334 C85.4577554,12.255562 85.2484161,12.6576828 84.9763891,12.9983078 C84.7043622,13.3389329 84.3755693,13.6050422 83.9900006,13.7966438 C83.604432,13.9882454 83.1727435,14.0840448 82.6949222,14.0840448 C82.2880645,14.0840448 81.9403483,14.0213613 81.6517632,13.8959923 C81.3631781,13.7706234 81.1053477,13.5967653 80.8782643,13.3744128 L80.8782643,16.3548672 L79.1254733,16.3548672 L79.1254733,6.69677568 L80.1970176,6.69677568 C80.424101,6.69677568 80.5731222,6.80321942 80.6440858,7.01611008 L80.7860122,7.69026048 Z M88.9396838,12.0899789 C89.1383818,12.331255 89.3548174,12.5015649 89.5889971,12.6009139 C89.8231769,12.7002629 90.0774591,12.7499366 90.3518515,12.7499366 C90.6167821,12.7499366 90.8556892,12.7002629 91.0685798,12.6009139 C91.2814705,12.5015649 91.4624249,12.3501783 91.6114483,12.1467494 C91.7604718,11.9433206 91.8751945,11.6866729 91.9556198,11.3767987 C92.0360452,11.0669245 92.0762573,10.7014677 92.0762573,10.2804173 C92.0762573,9.85463595 92.0419587,9.49390996 91.9733606,9.19822848 C91.9047625,8.902547 91.8065978,8.66245724 91.6788634,8.477952 C91.551129,8.29344676 91.3961942,8.15861803 91.2140544,8.07346176 C91.0319146,7.98830549 90.8249407,7.945728 90.5931264,7.945728 C90.2288468,7.945728 89.9189773,8.02260403 89.6635085,8.1763584 C89.4080397,8.33011277 89.1667672,8.54654836 88.9396838,8.82567168 L88.9396838,12.0899789 Z M88.8474317,7.69026048 C89.1454786,7.35436632 89.4837331,7.08234344 89.8622054,6.87418368 C90.2406777,6.66602392 90.685376,6.5619456 91.1963136,6.5619456 C91.5937095,6.5619456 91.9568009,6.64473517 92.2855987,6.8103168 C92.6143965,6.97589843 92.8982465,7.21598819 93.1371571,7.53059328 C93.3760678,7.84519837 93.5605702,8.23312665 93.6906701,8.69438976 C93.8207699,9.15565287 93.8858189,9.68432342 93.8858189,10.2804173 C93.8858189,10.8244712 93.812491,11.3283049 93.665833,11.7919334 C93.5191749,12.255562 93.3098356,12.6576828 93.0378086,12.9983078 C92.7657817,13.3389329 92.4369888,13.6050422 92.0514202,13.7966438 C91.6658515,13.9882454 91.234163,14.0840448 90.7563418,14.0840448 C90.349484,14.0840448 90.0017678,14.0213613 89.7131827,13.8959923 C89.4245976,13.7706234 89.1667672,13.5967653 88.9396838,13.3744128 L88.9396838,16.3548672 L87.1868928,16.3548672 L87.1868928,6.69677568 L88.2584371,6.69677568 C88.4855205,6.69677568 88.6345417,6.80321942 88.7055053,7.01611008 L88.8474317,7.69026048 Z" id="Kaasulla.app" fill-rule="nonzero"></path>
                <path d="M5.80667286,1.77635684e-15 C9.01295487,1.77635684e-15 11.61216,2.63318976 11.61216,5.88139394 C11.61216,5.94749892 11.6110835,6.01334918 11.6089472,6.07892771 C11.6101919,6.08224466 11.6095083,6.08288398 11.6088249,6.0835233 C11.5361619,8.25802149 10.2987742,10.1328605 8.50885461,11.0881973 C7.66347775,14.3879437 8.95852991,16.98816 8.49012998,16.98816 C7.13491039,16.98816 0.243507573,13.1886813 0.00627585257,6.66689706 L-6.45940723e-13,6.3211374 L-6.45926056e-13,6.08160535 C0.000342743305,6.05442263 0.00121752164,6.02729307 0.00261751836,6.00022074 L0.00118572883,5.88139394 C0.00118572883,2.63318976 2.60039085,1.77635684e-15 5.80667286,1.77635684e-15 Z M5.80667286,3.92092929 C4.73791219,3.92092929 3.87151049,4.79865921 3.87151049,5.88139394 C3.87151049,6.96412867 4.73791219,7.84185858 5.80667286,7.84185858 C6.87543353,7.84185858 7.74183524,6.96412867 7.74183524,5.88139394 C7.74183524,4.79865921 6.87543353,3.92092929 5.80667286,3.92092929 Z" id="Combined-Shape" transform="translate(5.806080, 8.494080) rotate(-360.000000) translate(-5.806080, -8.494080) "></path>
            </g>
        </g>
    </g>
</svg>