<?xml version="1.0" encoding="UTF-8"?>
<svg width="22px" height="32px" viewBox="0 0 22 32" version="1.1" xmlns="http://www.w3.org/2000/svg" xmlns:xlink="http://www.w3.org/1999/xlink">
    <!-- Generator: Sketch 58 (84663) - https://sketch.com -->
    <title>Group</title>
    <desc>Created with Sketch.</desc>
    <g id="Page" stroke="none" stroke-width="1" fill="none" fill-rule="evenodd">
        <g id="Group" fill="#2388CC">
            <path d="M10.8011028,-4.61852778e-14 C16.765169,-4.61852778e-14 21.6,4.89804643 21.6,10.9400929 C21.6,11.0627485 21.5980075,11.1849326 21.5940536,11.3066138 C21.5962565,11.3137765 21.5949022,11.315043 21.5935483,11.3163095 C21.4586861,15.3615433 19.1561402,18.8496022 15.8256136,20.6263643 C14.2555376,26.7644059 16.6638315,31.6 15.7926525,31.6 C13.256058,31.6 0.292629356,24.444071 0.00486632421,12.1736132 L-5.47679295e-13,11.7580681 L-5.47652013e-13,11.3125099 C0.000578811161,11.2666049 0.00197333145,11.2207813 0.00417407246,11.1750449 L0.00220559679,10.9400929 C0.00220559679,4.89804643 4.83703656,-4.61852778e-14 10.8011028,-4.61852778e-14 Z M10.8011028,7.29339526 C8.81308072,7.29339526 7.2014704,8.9260774 7.2014704,10.9400929 C7.2014704,12.9541084 8.81308072,14.5867905 10.8011028,14.5867905 C12.7891249,14.5867905 14.4007352,12.9541084 14.4007352,10.9400929 C14.4007352,8.9260774 12.7891249,7.29339526 10.8011028,7.29339526 Z" id="Combined-Shape" transform="translate(10.800000, 15.800000) rotate(-360.000000) translate(-10.800000, -15.800000) "></path>
        </g>
    </g>
</svg>