<svg xmlns="http://www.w3.org/2000/svg" viewBox="0 0 22 32">
  <path fill="#2388CC" fill-rule="evenodd" d="M10.8011028 0C16.765169 0 21.6 4.89804643 21.6 10.9400929c0 .1226556-.0019925.2448397-.0059464.3665209.0022029.0071627.0008486.0084292-.0005053.0096957-.1348622 4.0452338-2.4374081 7.5332927-5.7679347 9.3100548C14.2555376 26.7644059 16.6638315 31.6 15.7926525 31.6 13.256058 31.6.29262936 24.444071.00486632 12.1736132L0 11.7580681v-.4455582c.00057881-.045905.00197333-.0917286.00417407-.137465l-.00196847-.234952C.0022056 4.89804643 4.83703656 0 10.8011028 0zm0 7.29339526c-1.98802208 0-3.5996324 1.63268214-3.5996324 3.64669764s1.61161032 3.6466976 3.5996324 3.6466976c1.9880221 0 3.5996324-1.6326821 3.5996324-3.6466976s-1.6116103-3.64669764-3.5996324-3.64669764z"/>
</svg>
