<?xml version="1.0" encoding="UTF-8"?>
<svg width="169px" height="28px" viewBox="0 0 169 28" version="1.1" xmlns="http://www.w3.org/2000/svg" xmlns:xlink="http://www.w3.org/1999/xlink">
    <!-- Generator: Sketch 58 (84663) - https://sketch.com -->
    <title>Group 6</title>
    <desc>Created with Sketch.</desc>
    <g id="Page" stroke="none" stroke-width="1" fill="none" fill-rule="evenodd">
        <g id="Desktop-HD---Copy" transform="translate(-570.000000, -58.000000)" fill="#394149">
            <g id="Group-5" transform="translate(570.000000, 57.000000)">
                <g id="Group-3">
                    <g id="Group-6">
                        <g id="Group" transform="translate(0.000000, 1.000000)" fill-rule="nonzero">
                            <path d="M20.419,12.371 C19.6517274,13.1429606 19.2682964,14.2166406 19.373,15.3 L19.355,15.282 C19.4626182,16.5568854 19.002753,17.8143804 18.0980667,18.7190667 C17.1933804,19.623753 15.9358854,20.0836182 14.661,19.976 L14.679,19.994 C13.1354057,19.8503279 11.6674504,20.6899556 11.0087056,22.0933016 C10.3499607,23.4966477 10.6418763,25.1623766 11.7385752,26.2580848 C12.835274,27.353793 14.5012661,27.644203 15.9040162,26.9841902 C17.3067664,26.3241773 18.1450671,24.8554638 18,23.312 L18.019,23.33 C17.9113818,22.0551146 18.371247,20.7976196 19.2759333,19.8929333 C20.1806196,18.988247 21.4381146,18.5283818 22.713,18.636 L22.694,18.618 C24.3904586,18.7705656 25.9690261,17.7361592 26.5063604,16.1198301 C27.0436946,14.5035009 26.3986344,12.7298693 24.948491,11.836375 C23.4983475,10.9428806 21.6240831,11.1642505 20.422,12.371 L20.419,12.371 Z" id="Path"></path>
                            <path d="M13.042,17.636 L13.023,17.618 C14.1070461,17.7272294 15.1828469,17.3438935 15.9535553,16.5737664 C16.7242637,15.8036394 17.1084114,14.7281283 17,13.644 L17.019,13.662 C16.9113818,12.3871146 17.371247,11.1296196 18.2759333,10.2249333 C19.1806196,9.32024703 20.4381146,8.86038183 21.713,8.968 L21.694,8.95 C23.2377265,9.09497146 24.7065722,8.25626238 25.3663214,6.8531091 C26.0260705,5.44995581 25.7350092,3.78375535 24.6386269,2.68737309 C23.5422446,1.59099084 21.8760442,1.29992946 20.4728909,1.95967863 C19.0697376,2.61942781 18.2310285,4.08827354 18.376,5.632 L18.358,5.613 C18.465976,6.88797519 18.0062267,8.14568501 17.1014559,9.05045585 C16.196685,9.95522669 14.9389752,10.414976 13.664,10.307 L13.682,10.326 C12.5979539,10.2167706 11.5221531,10.6001065 10.7514447,11.3702336 C9.98073632,12.1403606 9.59658865,13.2158717 9.705,14.3 L9.687,14.282 C9.79426069,15.5567957 9.3342797,16.8140761 8.4296779,17.7186779 C7.52507611,18.6232797 6.26779565,19.0832607 4.993,18.976 L5.011,18.994 C3.46727354,18.8490285 1.99842781,19.6877376 1.33867863,21.0908909 C0.678929463,22.4940442 0.969990837,24.1602446 2.06637309,25.2566269 C3.16275535,26.3530092 4.82895581,26.6440705 6.2321091,25.9843214 C7.63526238,25.3245722 8.47397146,23.8557265 8.329,22.312 L8.348,22.33 C8.24038183,21.0551146 8.70024703,19.7976196 9.6049333,18.8929333 C10.5096196,17.988247 11.7671146,17.5283818 13.042,17.636 L13.042,17.636 Z" id="Path"></path>
                            <path d="M6.34,15.629 C7.10739358,14.8571665 7.49053379,13.783274 7.385,12.7 L7.404,12.718 C7.29629936,11.4427369 7.75642319,10.1848731 8.66157322,9.28010861 C9.56672324,8.37534409 10.8247829,7.91575612 12.1,8.024 L12.081,8.006 C13.6241882,8.15057018 15.0923272,7.31193565 15.7516744,5.90922702 C16.4110215,4.50651838 16.1199783,2.84097524 15.0240015,1.74499846 C13.9280248,0.649021679 12.2624816,0.35797846 10.859773,1.01732563 C9.45706435,1.67667281 8.61842982,3.14481185 8.763,4.688 L8.745,4.67 C8.85261817,5.94488541 8.39275297,7.20238043 7.4880667,8.1070667 C6.58338043,9.01175297 5.32588541,9.47161817 4.051,9.364 L4.069,9.382 C2.37260302,9.22986926 0.79436659,10.2645426 0.257351539,11.8808722 C-0.279663513,13.4972018 0.365602791,15.2706196 1.81575449,16.1639093 C3.2659062,17.057199 5.14002592,16.8357165 6.342,15.629 L6.34,15.629 Z" id="Path"></path>
                        </g>
                        <text id="Kaasulle.app" font-family="Lato-Bold, Lato" font-size="24" font-weight="bold">
                            <tspan x="35" y="24">Kaasulle.app</tspan>
                        </text>
                    </g>
                </g>
            </g>
        </g>
    </g>
</svg>