<?xml version="1.0" standalone="no"?>
<!DOCTYPE svg PUBLIC "-//W3C//DTD SVG 20010904//EN"
 "http://www.w3.org/TR/2001/REC-SVG-20010904/DTD/svg10.dtd">
<svg version="1.0" xmlns="http://www.w3.org/2000/svg"
 width="254.000000pt" height="254.000000pt" viewBox="0 0 254.000000 254.000000"
 preserveAspectRatio="xMidYMid meet">
<metadata>
Created by potrace 1.11, written by Peter Selinger 2001-2013
</metadata>
<g transform="translate(0.000000,254.000000) scale(0.100000,-0.100000)"
fill="#000000" stroke="none">
<path d="M1169 2536 c-2 -2 -22 -6 -44 -9 -163 -22 -337 -112 -463 -239 -63
-64 -146 -174 -163 -216 -5 -12 -17 -41 -28 -65 -26 -58 -51 -142 -59 -202
-12 -84 -7 -345 7 -435 27 -168 130 -431 224 -570 204 -303 491 -558 797 -711
100 -50 186 -79 217 -75 20 3 23 43 9 121 -3 22 -11 65 -16 95 -19 115 -22
149 -25 271 -2 145 9 262 35 359 7 26 20 41 52 59 172 97 334 317 388 526 53
202 23 449 -76 633 -118 220 -326 380 -569 439 -55 14 -276 28 -286 19z m189
-597 c56 -15 136 -88 164 -148 95 -204 -67 -437 -289 -415 -176 17 -300 214
-240 382 54 154 202 227 365 181z"/>
</g>
</svg>
