<?xml version="1.0" encoding="UTF-8"?>
<svg width="14px" height="19px" viewBox="0 0 14 19" version="1.1" xmlns="http://www.w3.org/2000/svg" xmlns:xlink="http://www.w3.org/1999/xlink">
    <g id="Front-page-v2" stroke="none" stroke-width="1" fill="none" fill-rule="evenodd">
        <g id="app-02-ux-1-copy" transform="translate(-91.000000, -193.000000)" fill-rule="nonzero">
            <g id="Group" transform="translate(91.000000, 112.000000)">
                <g id="icon" transform="translate(0.000000, 81.000000)">
                    <path d="M6.28060417,18.6166556 C0.98328125,10.7999759 0,9.99774561 0,7.12499826 C0,3.18995821 3.13399479,0 7,0 C10.8660052,0 14,3.18995821 14,7.12499826 C14,9.99774561 13.0167187,10.7999759 7.71939583,18.6166556 C7.37176563,19.1278 6.62819792,19.1277629 6.28060417,18.6166556 Z" id="Shape" fill="#2388CC"></path>
                    <path d="M7,10.0937475 C8.61083854,10.0937475 9.91666667,8.76460138 9.91666667,7.12499826 C9.91666667,5.48539515 8.61083854,4.15624899 7,4.15624899 C5.38916146,4.15624899 4.08333333,5.48539515 4.08333333,7.12499826 C4.08333333,8.76460138 5.38916146,10.0937475 7,10.0937475 Z" id="Path" fill="#FFFFFF"></path>
                </g>
            </g>
        </g>
    </g>
</svg>